<?xml version="1.0" encoding="UTF-8" standalone="no"?>
<!-- Created with Inkscape (http://www.inkscape.org/) -->

<svg
   xmlns:dc="http://purl.org/dc/elements/1.1/"
   xmlns:cc="http://creativecommons.org/ns#"
   xmlns:rdf="http://www.w3.org/1999/02/22-rdf-syntax-ns#"
   xmlns:svg="http://www.w3.org/2000/svg"
   xmlns="http://www.w3.org/2000/svg"
   xmlns:sodipodi="http://sodipodi.sourceforge.net/DTD/sodipodi-0.dtd"
   xmlns:inkscape="http://www.inkscape.org/namespaces/inkscape"
   width="256"
   height="256"
   viewBox="0 0 67.733332 67.733335"
   version="1.1"
   id="svg8"
   inkscape:version="0.92.1 r15371"
   sodipodi:docname="Il.svg"
   inkscape:export-filename="C:\Git\MGM\iletait\Assets\Graphics\Il.png"
   inkscape:export-xdpi="96"
   inkscape:export-ydpi="96">
  <defs
     id="defs2">
    <inkscape:path-effect
       bendpath-nodetypes="cc"
       vertical="false"
       scale_y_rel="false"
       prop_scale="1.3"
       bendpath="m 87.266261,11.379569 c 7.904855,7.261284 -3.049206,22.987366 -9.896983,13.58055"
       is_visible="true"
       id="path-effect4653"
       effect="bend_path" />
    <inkscape:path-effect
       effect="bend_path"
       id="path-effect4645"
       is_visible="true"
       bendpath="M 74.795069,28.744397 C 83.727178,18.711473 89.196258,22.572744 96.106251,28.228713"
       prop_scale="1.3"
       scale_y_rel="false"
       vertical="false"
       bendpath-nodetypes="cc" />
  </defs>
  <sodipodi:namedview
     id="base"
     pagecolor="#ffffff"
     bordercolor="#666666"
     borderopacity="1.0"
     inkscape:pageopacity="0.0"
     inkscape:pageshadow="2"
     inkscape:zoom="1.3048576"
     inkscape:cx="100.77643"
     inkscape:cy="165.27985"
     inkscape:document-units="px"
     inkscape:current-layer="layer2"
     showgrid="false"
     units="px"
     inkscape:snap-global="false"
     inkscape:window-width="756"
     inkscape:window-height="696"
     inkscape:window-x="601"
     inkscape:window-y="0"
     inkscape:window-maximized="0" />
  <metadata
     id="metadata5">
    <rdf:RDF>
      <cc:Work
         rdf:about="">
        <dc:format>image/svg+xml</dc:format>
        <dc:type
           rdf:resource="http://purl.org/dc/dcmitype/StillImage" />
        <dc:title></dc:title>
      </cc:Work>
    </rdf:RDF>
  </metadata>
  <g
     inkscape:label="Layer 1"
     inkscape:groupmode="layer"
     id="layer1"
     transform="translate(0,-229.26665)" />
  <g
     inkscape:groupmode="layer"
     id="layer2"
     inkscape:label="Illus">
    <g
       transform="matrix(-0.83610883,0.61559354,-0.54209769,-0.73725932,130.385,-10.940533)"
       id="g4612"
       style="stroke:none;stroke-width:1.02590227"
       inkscape:path-effect="#path-effect4645">
      <path
         inkscape:connector-curvature="0"
         transform="scale(0.26458333)"
         id="path4608"
         d="m 350.5252,87.194628 c -0.66046,-0.429567 -1.32787,-0.853991 -2.00268,-1.27259 -6.18745,-3.925419 -13.46547,-7.17539 -21.71452,-8.328115 -8.72761,-0.981663 -17.26006,0.903643 -24.56067,4.708907 l 0,2e-6 c -8.06621,4.229632 -14.83934,9.884376 -20.71763,15.93356 -2.78597,2.866968 -2.08888,7.511148 1.16032,10.403848 3.26259,2.90462 7.84125,3.08127 10.20624,0.65279 5.17512,-5.31405 10.55776,-9.968097 16.54617,-12.931462 l 0,-1e-6 c 4.97284,-2.476143 10.45433,-3.82398 15.40781,-3.096501 5.02081,0.505043 10.18998,3.013209 15.38796,6.102701 0.56861,0.347505 1.13475,0.703913 1.69884,1.068553 z"
         style="fill:#ffccaa;fill-opacity:1;stroke:none;stroke-width:1.93895519;stroke-miterlimit:4;stroke-dasharray:none"
         inkscape:original-d="m 343.29297,105.47852 h -61 c -3.3648,0 -6.07422,2.70941 -6.07422,6.07421 0,3.36481 2.70942,6.07422 6.07422,6.07422 h 61 z" />
      <path
         inkscape:connector-curvature="0"
         transform="scale(0.26458333)"
         id="path4610"
         d="m 350.5252,87.194628 -8.58816,13.241692 c 3.78728,2.44813 7.48246,5.26694 11.21488,8.24984 2.79141,2.23086 7.31006,1.39438 10.08431,-1.99496 2.7631,-3.37573 2.7365,-7.995161 -0.22082,-10.355442 -3.9357,-3.141141 -8.056,-6.257048 -12.49021,-9.14113 z"
         style="fill:#006680;fill-opacity:1;stroke:none;stroke-width:1.93895519;stroke-miterlimit:4;stroke-dasharray:none"
         inkscape:original-d="m 343.29297,105.47852 v 12.14843 h 13.46875 c 3.3648,0 6.07226,-2.70941 6.07226,-6.07422 0,-3.3648 -2.70746,-6.07421 -6.07226,-6.07421 z" />
    </g>
    <path
       style="fill:#006680;fill-opacity:1;stroke:none;stroke-width:0.44037828;stroke-miterlimit:4;stroke-dasharray:none"
       d="m 32.84785,25.370229 c -3.127523,0 -5.645412,2.856809 -5.645412,6.405313 v 8.573509 h 11.290825 v -8.573509 c 0,-3.548504 -2.517889,-6.405313 -5.645413,-6.405313 z"
       id="rect4500"
       inkscape:connector-curvature="0" />
    <rect
       ry="0.68934071"
       y="22.536467"
       x="32.217049"
       height="5.6242714"
       width="1.2616402"
       id="rect4638"
       style="fill:#ffb380;fill-opacity:1;stroke:none;stroke-width:0.44037828;stroke-miterlimit:4;stroke-dasharray:none"
       rx="0.68934071" />
    <ellipse
       style="fill:#00222b;fill-opacity:1;stroke:none;stroke-width:0.50006253;stroke-miterlimit:4;stroke-dasharray:none"
       id="circle4516"
       cx="32.847866"
       cy="11.17692"
       rx="6.3527646"
       ry="7.20788" />
    <g
       id="g4538"
       transform="matrix(0.91510639,0,0,1.0382846,2.5320134,-0.95973636)"
       style="stroke:none;stroke-width:1.02590227">
      <g
         transform="translate(-3.6832851,-0.27947582)"
         id="g4524"
         style="stroke:none;stroke-width:1.02590227">
        <circle
           style="fill:#ffccaa;fill-opacity:1;stroke:none;stroke-width:0.51301533;stroke-miterlimit:4;stroke-dasharray:none"
           id="circle4518"
           cx="42.95998"
           cy="15.462067"
           r="1.7718023" />
        <circle
           r="1.0731127"
           cy="15.462067"
           cx="42.95998"
           id="circle4520"
           style="fill:#ffb380;fill-opacity:1;stroke:none;stroke-width:0.51301533;stroke-miterlimit:4;stroke-dasharray:none" />
      </g>
      <g
         id="g4530"
         transform="translate(-15.980221,-0.27947582)"
         style="stroke:none;stroke-width:1.02590227">
        <circle
           r="1.7718023"
           cy="15.462067"
           cx="42.95998"
           id="circle4526"
           style="fill:#ffccaa;fill-opacity:1;stroke:none;stroke-width:0.51301533;stroke-miterlimit:4;stroke-dasharray:none" />
        <circle
           style="fill:#ffb380;fill-opacity:1;stroke:none;stroke-width:0.51301533;stroke-miterlimit:4;stroke-dasharray:none"
           id="circle4528"
           cx="42.95998"
           cy="15.462067"
           r="1.0731127" />
      </g>
    </g>
    <rect
       style="fill:none;fill-opacity:1;stroke:#000000;stroke-width:0.44037825;stroke-miterlimit:4;stroke-dasharray:none"
       id="rect4486"
       width="12.338126"
       height="17.197794"
       x="71.977821"
       y="2.5400286"
       rx="6.1690631"
       ry="6.1690631" />
    <circle
       style="fill:none;fill-opacity:1;stroke:#000000;stroke-width:0.5000625;stroke-miterlimit:4;stroke-dasharray:none"
       id="path4488"
       cx="97.318024"
       cy="8.6149101"
       r="5.684464" />
    <rect
       style="fill:none;fill-opacity:1;stroke:#000000;stroke-width:0.5000625;stroke-miterlimit:4;stroke-dasharray:none"
       id="rect4490"
       width="10.232035"
       height="10.232035"
       x="105.73103"
       y="3.6125813" />
    <rect
       ry="6.1690631"
       rx="6.1690631"
       y="5.6840086"
       x="27.202517"
       height="17.856205"
       width="11.290698"
       id="rect4498"
       style="fill:#ffccaa;fill-opacity:1;stroke:none;stroke-width:0.44037825;stroke-miterlimit:4;stroke-dasharray:none" />
    <path
       style="fill:#00112b;fill-opacity:1;stroke:none;stroke-width:0.44037828;stroke-miterlimit:4;stroke-dasharray:none"
       d="M 38.493263,40.349051 H 27.202438 v 3.483808 c 0,3.548504 2.517889,6.404778 5.645412,6.404778 3.127524,0 5.645413,-2.856274 5.645413,-6.404778 z"
       id="path4643"
       inkscape:connector-curvature="0" />
    <rect
       style="fill:#ffb380;fill-opacity:1;stroke:none;stroke-width:0.44037828;stroke-miterlimit:4;stroke-dasharray:none"
       id="rect4504"
       width="1.2616402"
       height="5.6242714"
       x="32.217049"
       y="11.799976"
       ry="0.68934071"
       rx="0.68934071" />
    <ellipse
       cy="12.772886"
       cx="30.080458"
       id="circle4506"
       style="fill:#00222b;fill-opacity:1;stroke:none;stroke-width:0.50006253;stroke-miterlimit:4;stroke-dasharray:none"
       rx="0.72626239"
       ry="0.8240211" />
    <ellipse
       style="fill:#00222b;fill-opacity:1;stroke:none;stroke-width:0.50006253;stroke-miterlimit:4;stroke-dasharray:none"
       id="circle4508"
       cx="35.579086"
       cy="12.772886"
       rx="0.72626239"
       ry="0.8240211" />
    <ellipse
       cy="5.3734121"
       cx="35.834839"
       id="circle4510"
       style="fill:#00222b;fill-opacity:1;stroke:none;stroke-width:0.50006253;stroke-miterlimit:4;stroke-dasharray:none"
       rx="2.9001384"
       ry="3.2905123" />
    <ellipse
       style="fill:#00222b;fill-opacity:1;stroke:none;stroke-width:0.50006253;stroke-miterlimit:4;stroke-dasharray:none"
       id="circle4512"
       cx="32.637966"
       cy="4.5028858"
       rx="2.1328878"
       ry="2.419986" />
    <ellipse
       cy="5.5184994"
       cx="30.20834"
       id="circle4514"
       style="fill:#00222b;fill-opacity:1;stroke:none;stroke-width:0.50006253;stroke-miterlimit:4;stroke-dasharray:none"
       rx="1.6213876"
       ry="1.839635" />
    <g
       id="g4589"
       style="stroke:none;stroke-width:1.02590227"
       transform="matrix(0.91510639,0,0,1.0382846,2.5320134,-3.1360522)">
      <g
         id="g4577"
         style="stroke:none;stroke-width:1.02590227">
        <rect
           style="fill:#00112b;fill-opacity:1;stroke:none;stroke-width:0.51301527;stroke-miterlimit:4;stroke-dasharray:none"
           id="rect4540"
           width="2.7947581"
           height="21.3799"
           x="28.42305"
           y="44.397102" />
        <path
           style="fill:#2b1100;fill-opacity:1;stroke:none;stroke-width:0.51301533;stroke-miterlimit:4;stroke-dasharray:none"
           d="m 29.14569,64.275369 a 3.0659022,2.9612251 0 0 0 -3.065871,2.961197 3.0659022,2.9612251 0 0 0 0.0028,0.0778 h 6.125054 a 3.0659022,2.9612251 0 0 0 0.0039,-0.0778 3.0659022,2.9612251 0 0 0 -3.065872,-2.961197 z"
           id="circle4542"
           inkscape:connector-curvature="0" />
      </g>
      <g
         id="g4581"
         style="stroke:none;stroke-width:1.02590227">
        <rect
           y="44.397102"
           x="-37.833405"
           height="21.3799"
           width="2.7947581"
           id="rect4551"
           style="fill:#00112b;fill-opacity:1;stroke:none;stroke-width:0.51301527;stroke-miterlimit:4;stroke-dasharray:none"
           transform="scale(-1,1)" />
        <path
           inkscape:connector-curvature="0"
           id="path4553"
           d="m 37.110763,64.275369 a 3.0659022,2.9612251 0 0 1 3.065871,2.961197 3.0659022,2.9612251 0 0 1 -0.0028,0.0778 H 34.04878 a 3.0659022,2.9612251 0 0 1 -0.0039,-0.0778 3.0659022,2.9612251 0 0 1 3.065872,-2.961197 z"
           style="fill:#2b1100;fill-opacity:1;stroke:none;stroke-width:0.51301533;stroke-miterlimit:4;stroke-dasharray:none" />
      </g>
    </g>
    <g
       inkscape:path-effect="#path-effect4653"
       style="stroke:none;stroke-width:1.02590227"
       id="g4651"
       transform="matrix(-0.83610883,0.61559354,-0.54209769,-0.73725932,108.48606,-1.2076699)">
      <path
         inkscape:original-d="m 343.29297,105.47852 h -61 c -3.3648,0 -6.07422,2.70941 -6.07422,6.07421 0,3.36481 2.70942,6.07422 6.07422,6.07422 h 61 z"
         style="fill:#ffccaa;fill-opacity:1;stroke:none;stroke-width:1.93895519;stroke-miterlimit:4;stroke-dasharray:none"
         d="m 311.85011,113.22202 c 0.88002,-0.0323 1.76224,-0.10805 2.6438,-0.22807 10.6504,-1.91555 18.8917,-8.46085 23.97177,-16.118672 l 10e-6,-4e-6 c 6.02613,-8.426362 9.51962,-18.643236 9.65477,-29.193107 0.0788,-8.410075 -2.40772,-16.715673 -7.14253,-23.686756 -3.02276,-4.450423 -8.23741,-4.15967 -11.15268,-0.986021 -2.90722,3.164889 -3.2969,7.694053 -1.86466,9.812364 2.85639,4.224632 4.41792,9.538086 4.36762,14.710325 -0.0322,7.05424 -2.55102,14.269298 -6.73085,20.187659 l 0,10e-7 c -3.91669,4.98735 -8.60843,9.372422 -13.32308,9.638011 -0.33386,0.05251 -0.67492,0.08542 -1.02032,0.09948 z"
         id="path4647"
         transform="scale(0.26458333)"
         inkscape:connector-curvature="0" />
      <path
         inkscape:original-d="m 343.29297,105.47852 v 12.14843 h 13.46875 c 3.3648,0 6.07226,-2.70941 6.07226,-6.07422 0,-3.3648 -2.70746,-6.07421 -6.07226,-6.07421 z"
         style="fill:#006680;fill-opacity:1;stroke:none;stroke-width:1.93895519;stroke-miterlimit:4;stroke-dasharray:none"
         d="m 311.85011,113.22202 -0.59615,-15.76479 c -1.71823,0.06994 -3.54366,-0.326535 -5.12257,-1.095571 -1.26972,-0.548826 -2.48799,-1.429713 -3.66815,-2.531374 -1.88124,-1.756108 -6.5329,-2.048707 -10.04392,0.507178 -3.42901,2.496177 -4.60832,7.617337 -0.53207,11.221657 2.1447,1.89639 4.58924,3.60343 7.34695,5.0098 3.91488,1.89803 8.23808,2.81368 12.61591,2.6531 z"
         id="path4649"
         transform="scale(0.26458333)"
         inkscape:connector-curvature="0" />
    </g>
    <g
       id="g4600">
      <path
         transform="scale(0.26458333)"
         id="path4596"
         d="M 343.29297 105.47852 L 282.29297 105.47852 C 278.92817 105.47852 276.21875 108.18793 276.21875 111.55273 C 276.21875 114.91754 278.92817 117.62695 282.29297 117.62695 L 343.29297 117.62695 L 343.29297 105.47852 z "
         style="fill:none;fill-opacity:1;stroke:#000000;stroke-width:1.88999987;stroke-miterlimit:4;stroke-dasharray:none" />
      <path
         transform="scale(0.26458333)"
         id="rect4591"
         d="M 343.29297 105.47852 L 343.29297 117.62695 L 356.76172 117.62695 C 360.12652 117.62695 362.83398 114.91754 362.83398 111.55273 C 362.83398 108.18793 360.12652 105.47852 356.76172 105.47852 L 343.29297 105.47852 z "
         style="fill:none;fill-opacity:1;stroke:#000000;stroke-width:1.88999987;stroke-miterlimit:4;stroke-dasharray:none" />
    </g>
    <g
       id="g4636"
       transform="matrix(0.91510639,0,0,1.0382846,2.5320134,-1.9753504)"
       style="stroke:none;stroke-width:1.02590227">
      <path
         style="fill:#1a1a1a;fill-opacity:1;stroke:none;stroke-width:0.51301533;stroke-miterlimit:4;stroke-dasharray:none"
         d="M 33.128221,23.418797 A 3.0659022,2.9612251 0 0 1 30.06235,20.4576 a 3.0659022,2.9612251 0 0 1 0.0028,-0.0778 h 6.125054 a 3.0659022,2.9612251 0 0 1 0.0039,0.0778 3.0659022,2.9612251 0 0 1 -3.065872,2.961197 z"
         id="path4629"
         inkscape:connector-curvature="0" />
      <path
         inkscape:connector-curvature="0"
         id="circle4542-6"
         d="m 33.128962,21.534549 a 2.5619127,2.6168929 0 0 0 -2.026905,1.018543 2.8720756,2.9612251 0 0 0 2.026905,0.865579 2.8720756,2.9612251 0 0 0 2.02545,-0.864032 2.5619127,2.6168929 0 0 0 -2.02545,-1.02009 z"
         style="fill:#ff5555;fill-opacity:1;stroke:none;stroke-width:0.51301533;stroke-miterlimit:4;stroke-dasharray:none" />
    </g>
  </g>
</svg>
