<?xml version="1.0" encoding="UTF-8" standalone="no"?>
<!-- Created with Inkscape (http://www.inkscape.org/) -->

<svg
   xmlns:dc="http://purl.org/dc/elements/1.1/"
   xmlns:cc="http://creativecommons.org/ns#"
   xmlns:rdf="http://www.w3.org/1999/02/22-rdf-syntax-ns#"
   xmlns:svg="http://www.w3.org/2000/svg"
   xmlns="http://www.w3.org/2000/svg"
   xmlns:xlink="http://www.w3.org/1999/xlink"
   xmlns:sodipodi="http://sodipodi.sourceforge.net/DTD/sodipodi-0.dtd"
   xmlns:inkscape="http://www.inkscape.org/namespaces/inkscape"
   width="210mm"
   height="297mm"
   viewBox="0 0 210 297"
   version="1.1"
   id="svg901"
   inkscape:version="0.92.2 5c3e80d, 2017-08-06"
   sodipodi:docname="flammeV0.1.svg"
   inkscape:export-filename="/Users/toujoursplus/project/iletait/Assets/Graphics/flamme1V0.1.png"
   inkscape:export-xdpi="96"
   inkscape:export-ydpi="96">
  <defs
     id="defs895">
    <inkscape:path-effect
       overflow_perspective="false"
       vertical_mirror="false"
       horizontal_mirror="false"
       deform_type="perspective"
       is_visible="true"
       id="path-effect11515"
       down_right_point="235.1012,287.17259"
       down_left_point="96.386196,264.80597"
       up_right_point="235.1012,-89.37121"
       up_left_point="107.59015,-3.4716249"
       effect="perspective-envelope" />
    <inkscape:path-effect
       overflow_perspective="false"
       vertical_mirror="false"
       horizontal_mirror="false"
       deform_type="perspective"
       is_visible="true"
       id="path-effect11513"
       down_right_point="415.01787,287.17259"
       down_left_point="260.99939,267.16035"
       up_right_point="415.01787,-89.614906"
       up_left_point="277.07523,-18.370271"
       effect="perspective-envelope" />
    <linearGradient
       id="linearGradient11503"
       inkscape:collect="always">
      <stop
         id="stop11499"
         offset="0"
         style="stop-color:#0088aa;stop-opacity:1;" />
      <stop
         id="stop11501"
         offset="1"
         style="stop-color:#87cdde;stop-opacity:1" />
    </linearGradient>
    <linearGradient
       gradientUnits="userSpaceOnUse"
       y2="275.83331"
       x2="148.16667"
       y1="28.636896"
       x1="148.92262"
       id="linearGradient11505"
       xlink:href="#linearGradient11503"
       inkscape:collect="always" />
  </defs>
  <sodipodi:namedview
     id="base"
     pagecolor="#ffffff"
     bordercolor="#666666"
     borderopacity="1.0"
     inkscape:pageopacity="0.0"
     inkscape:pageshadow="2"
     inkscape:zoom="0.22627417"
     inkscape:cx="3480.6755"
     inkscape:cy="729.22201"
     inkscape:document-units="mm"
     inkscape:current-layer="g6242"
     showgrid="false"
     inkscape:pagecheckerboard="false"
     inkscape:snap-global="false"
     inkscape:window-width="1440"
     inkscape:window-height="802"
     inkscape:window-x="0"
     inkscape:window-y="1"
     inkscape:window-maximized="1" />
  <metadata
     id="metadata898">
    <rdf:RDF>
      <cc:Work
         rdf:about="">
        <dc:format>image/svg+xml</dc:format>
        <dc:type
           rdf:resource="http://purl.org/dc/dcmitype/StillImage" />
        <dc:title></dc:title>
      </cc:Work>
    </rdf:RDF>
  </metadata>
  <g
     inkscape:label="Calque 1"
     inkscape:groupmode="layer"
     id="layer1">
    <g
       id="g6242">
      <g
         id="g6535"
         inkscape:export-xdpi="96"
         inkscape:export-ydpi="96">
        <path
           sodipodi:nodetypes="cccccccccccccc"
           inkscape:connector-curvature="0"
           id="path6156"
           d="m 808.38053,331.52046 c -22.29245,-132.34146 12.73006,-117.2673 5.19862,-165.72121 34.0646,21.11353 10.97999,56.97846 34.2301,45.66628 15.9598,-14.73232 8.61566,-7.00158 54.01523,-39.3468 -21.55058,44.27662 45.0912,39.55392 63.1797,55.79896 26.61345,-31.76856 -28.14655,-46.05503 -54.14174,-98.15462 18.55699,18.35485 96.31806,35.43459 117.15766,62.53181 4.8761,-9.08623 -35.45975,-75.09866 -15.5882,-69.07467 18.9755,37.39682 56.741,29.57858 82.3019,11.92026 94.696,59.20373 93.1692,41.27008 11.5516,-24.42887 168.6423,24.61572 83.8291,72.69315 114.6663,76.74224 28.8753,-20.86805 2.7015,-63.57634 9.4253,-73.65883 60.2328,48.43518 18.8771,143.52715 18.7238,215.45759 z"
           style="fill:#ff0000;fill-opacity:0.656;stroke:none;stroke-width:0.26458332px;stroke-linecap:butt;stroke-linejoin:miter;stroke-opacity:1" />
        <path
           sodipodi:nodetypes="cccccccccccccccccc"
           inkscape:connector-curvature="0"
           id="path6158"
           d="m 806.11268,272.55617 c 14.89019,-28.73371 9.66185,-21.63714 27.9591,-46.51529 -1.59076,20.51842 1.34853,47.9804 23.23339,48.93581 31.13128,-1.33168 21.97633,-25.70668 -6.15183,-57.79498 2.03803,2.17664 35.67903,7.16205 77.35286,50.22429 4.30514,-23.58164 48.08814,7.51131 59.70906,-74.83928 6.5988,17.5823 23.01104,43.15903 54.10824,37.99872 8.4078,-33.14466 11.7794,-54.63144 25.8327,-58.89354 -10.0489,26.47759 27.1548,51.53869 45.0966,59.37764 20.3048,-17.91866 14.5312,-52.30902 2.104,-61.2433 22.6352,11.00824 32.5965,48.08428 40.5012,63.08665 3.5502,-22.10709 31.324,-60.1543 42.5456,-59.24729 4.7354,42.16238 -1.3389,43.10898 5.2208,56.08198 16.0971,-3.41591 27.6038,-1.88645 29.8248,-37.01935 20.3305,5.95758 35.18,14.68285 25.8326,-10.05079 13.1234,67.79151 -5.9584,109.64096 -10.181,146.59516 l -440.72027,2.26786 c -5.60465,-39.04955 -2.05607,-41.48622 -2.26785,-58.96429 z"
           style="fill:#ff5300;fill-opacity:0.46799999;stroke:none;stroke-width:0.26458332px;stroke-linecap:butt;stroke-linejoin:miter;stroke-opacity:1" />
        <path
           sodipodi:nodetypes="ccccccccccccccccccccc"
           inkscape:connector-curvature="0"
           id="path6160"
           d="m 801.02121,282.65539 c 3.76569,20.03439 29.47686,61.94629 32.13537,-17.4465 21.33225,73.16048 30.51235,-31.83365 54.86299,46.1354 1.10289,-17.64185 3.88094,-46.83051 16.87124,-56.22347 -1.2198,24.2572 14.86271,34.56823 27.72157,42.73552 16.42566,-2.16411 10.29707,-19.23158 2.54436,-37.51459 13.78688,3.88751 45.4732,32.72356 49.23899,52.64482 3.03266,-19.87498 -10.62175,-54.49228 10.08892,-60.6177 1.65812,28.61473 21.16365,42.7479 38.15665,53.94447 0.5249,-8.95091 1.2477,-28.32478 -6.9631,-65.77901 44.3941,23.59795 27.9014,44.28171 43.5306,60.68844 3.9092,-19.09564 5.5287,-56.42621 25.0065,-58.00724 9.5719,43.15772 21.4824,21.41907 31.0543,33.5226 -23.6778,-92.05167 38.1559,80.10452 25.8452,-14.19929 19.1082,11.82849 52.2286,54.43355 42.6991,50.44772 7.0412,-14.21781 2.5899,-51.8331 13.4845,-53.41192 0.7621,31.77106 13.6019,24.19602 23.4947,29.95509 9.0433,-2.59512 10.3842,-39.77697 13.7418,-53.74338 26.6104,21.76206 4.08,69.47653 5.3219,92.71028 l -441.43199,3.02382 z"
           style="fill:#fcff00;fill-opacity:0.31200005;stroke:none;stroke-width:0.26458332px;stroke-linecap:butt;stroke-linejoin:miter;stroke-opacity:1" />
        <path
           style="fill:#ff0000;fill-opacity:0.56800022;stroke:none;stroke-width:0.26458332px;stroke-linecap:butt;stroke-linejoin:miter;stroke-opacity:1"
           d="m 889.04634,108.07153 c -16.2509,44.43915 -29.7776,77.39753 -37.8483,38.32569 -5.70682,22.17547 -29.36129,61.65117 28.39423,22.65362 7.32307,-16.63713 7.13404,-42.30133 9.45407,-60.97931 z"
           id="path6162"
           inkscape:connector-curvature="0"
           sodipodi:nodetypes="cccc" />
      </g>
      <g
         id="g6529"
         inkscape:export-xdpi="96"
         inkscape:export-ydpi="96">
        <g
           transform="translate(5.8465213,115.76112)"
           style="stroke:none"
           id="g6146">
          <path
             style="fill:#ff0000;fill-opacity:0.656;stroke:none;stroke-width:0.26458332px;stroke-linecap:butt;stroke-linejoin:miter;stroke-opacity:1"
             d="M 262.31547,227.45238 C 235.91969,93.572173 270.25397,32.968137 281.54574,-8.4270731 285.23436,31.379367 292.51728,118.35504 322.79166,102.72024 338.75146,87.987924 339.59245,10.359449 388.49993,7.2468289 366.94935,51.52345 395.0041,90.065013 413.0926,106.31005 c 26.61345,-31.768559 37.33448,-25.007546 11.33929,-77.107135 18.55699,18.354844 33.17566,35.43457 54.01521,62.531792 4.87613,-9.086225 15.98969,-61.067009 35.86121,-55.043019 -18.9853,57.493732 14.24077,62.877614 51.90002,38.814264 5.90513,-20.48033 31.94338,-31.425503 -24.6969,-74.7089383 101.57269,9.4709623 45.53306,99.6905063 101.80404,109.4827463 28.87532,-20.86805 17.90236,-62.407028 24.62615,-72.48952 60.2328,48.435176 35.24743,115.46384 35.0941,187.39428 z"
             id="path6123"
             inkscape:connector-curvature="0"
             sodipodi:nodetypes="cccccccccccccc" />
          <path
             style="fill:#ff5300;fill-opacity:0.46799999;stroke:none;stroke-width:0.26458332px;stroke-linecap:butt;stroke-linejoin:miter;stroke-opacity:1"
             d="m 260.04762,168.48809 c 14.89019,-28.73371 29.54002,-57.88557 47.83727,-82.763718 -1.59076,20.518418 -11.51381,66.689268 10.37105,67.644678 19.12235,-2.08224 29.90327,-54.809262 37.11242,-84.688981 11.5414,-6.163519 21.94301,19.920438 29.41139,71.271771 2.7209,-20.1757 15.55373,-42.437517 29.22145,-58.96428 3.74057,26.3376 2.93702,25.66566 20.88368,48.9358 16.92063,-13.44817 15.77898,-25.59975 16.61978,-53.117757 12.95705,12.283709 28.90833,39.608857 31.89152,57.876887 8.40773,-33.14466 32.82682,-58.139351 46.88019,-62.401447 2.5165,31.503747 0.40554,35.694107 17.03314,43.007377 20.30486,-17.918663 34.40947,-16.060586 21.98222,-24.994867 22.63526,11.008247 16.22626,59.777317 24.13087,74.779687 3.55029,-22.10709 18.46161,-61.3236 29.68326,-60.41659 4.73539,42.16238 16.20075,27.90802 22.76047,40.88102 16.09718,-3.41591 17.08002,-43.9814 19.30101,-79.114303 6.44039,9.031972 17.53526,14.533483 18.35511,38.553563 13.25324,-1.03482 13.57987,-27.890718 19.17066,-40.419224 13.12331,67.791514 4.5653,123.672614 0.34261,160.626814 l -440.72025,2.26786 c -5.60465,-39.04955 -2.05607,-41.48622 -2.26785,-58.96429 z"
             id="path6125"
             inkscape:connector-curvature="0"
             sodipodi:nodetypes="ccccccccccccccccccccc" />
          <path
             style="fill:#fcff00;fill-opacity:0.31200005;stroke:none;stroke-width:0.26458332px;stroke-linecap:butt;stroke-linejoin:miter;stroke-opacity:1"
             d="m 251.44824,148.1854 c 12.71103,-3.22349 30.1979,29.66968 26.28885,-32.64745 17.30419,27.05983 37.30475,94.92338 38.89078,53.3858 7.60901,1.80476 20.41725,17.57998 30.00386,37.18316 1.10289,-17.64185 -1.96558,-69.04729 11.02472,-78.44025 -1.2198,24.2572 18.37062,32.22962 31.22948,40.39691 16.42566,-2.16411 11.46637,-36.77115 3.71366,-55.05416 13.78688,3.88751 24.42573,68.97199 28.19152,88.89325 3.03266,-19.87498 5.74851,-76.70906 26.45918,-82.83448 1.65812,28.61473 2.45484,66.13399 19.44777,77.33056 0.52487,-8.95091 16.44866,-27.15548 8.23792,-64.60971 44.39403,23.59795 39.59436,45.45102 55.22352,61.85775 3.90926,-19.09564 -7.33354,-66.94995 12.14426,-68.53098 9.57187,43.15772 27.32888,40.12794 36.90075,52.23147 6.67438,-6.51391 19.52491,-31.35575 18.82946,-56.29424 19.1082,11.82849 35.85823,64.95728 39.1912,72.6645 7.04118,-14.21781 9.60563,-38.97076 20.50026,-40.54958 0.76218,31.77106 11.26332,13.67228 21.15609,19.43135 9.04333,-2.59512 9.2149,-36.26905 12.57258,-50.23546 26.61038,21.76206 11.09573,78.83096 12.33771,102.06471 l -441.43206,3.02382 z"
             id="path6127"
             inkscape:connector-curvature="0"
             sodipodi:nodetypes="cccccccccccccccccccccc" />
        </g>
        <path
           sodipodi:nodetypes="cccc"
           inkscape:connector-curvature="0"
           id="path6172"
           d="m 630.90282,95.211822 c 11.51528,47.047668 14.72287,126.653648 -5.34376,89.526248 8.02208,30.23446 31.19362,-8.72133 38.54991,-63.65069 -0.55215,-2.61064 -17.65831,34.38006 -33.20615,-25.875558 z"
           style="fill:#ff0000;fill-opacity:0.56800022;stroke:none;stroke-width:0.26458332px;stroke-linecap:butt;stroke-linejoin:miter;stroke-opacity:1" />
        <path
           style="fill:#ff0000;fill-opacity:0.656;stroke:none;stroke-width:0.26458332px;stroke-linecap:butt;stroke-linejoin:miter;stroke-opacity:1"
           d="M 470.06028,163.69932 422.1188,111.08063 c 29.8768,21.08597 65.7461,34.38281 77.17407,30.40191 -9.04385,22.11288 -17.24837,61.85158 -29.23259,22.21678 z"
           id="path6174"
           inkscape:connector-curvature="0"
           sodipodi:nodetypes="cccc" />
      </g>
      <g
         id="g6216"
         style="stroke:none"
         transform="translate(5.8465213,115.76112)"
         inkscape:export-xdpi="96"
         inkscape:export-ydpi="96">
        <g
           transform="translate(4.6772168,-304.01909)"
           id="g6109"
           style="stroke:none">
          <path
             style="fill:#ff0000;fill-opacity:0.656;stroke:none;stroke-width:0.26458332px;stroke-linecap:butt;stroke-linejoin:miter;stroke-opacity:1"
             d="m 262.31547,227.45238 c -18.93265,-113.02623 38.38627,-84.86 33.26192,-210.154761 12.07878,20.788736 31.8195,21.996964 27.21427,85.422621 21.94455,-7.03764 21.26177,-53.216559 55.18453,-75.59524 -17.63956,40.3656 20.42079,42.007574 36.28571,60.476188 26.61345,-31.768564 37.33448,-25.007551 11.33929,-77.10714 18.52295,18.161949 25.40626,-8.2022677 55.18452,69.547617 4.87613,-31.573956 44.05299,-69.097994 49.89286,-59.720236 -17.69401,51.553813 10.45325,21.367248 35.52976,55.184523 -21.97888,-24.46376 46.27241,-25.369456 4.5357,-66.523809 79.00346,32.040198 -4.77376,112.579597 72.57144,101.297617 34.63332,-72.690053 -8.93942,-78.077889 -2.26785,-87.690474 85.09865,1.466359 62.67832,129.650674 61.9881,202.595234 z"
             id="path1498"
             inkscape:connector-curvature="0"
             sodipodi:nodetypes="cccccccccccccc" />
          <path
             style="fill:#ff5300;fill-opacity:0.46799999;stroke:none;stroke-width:0.26458332px;stroke-linecap:butt;stroke-linejoin:miter;stroke-opacity:1"
             d="m 260.04762,168.48809 c 17.92266,-33.78783 28.61918,-43.48849 40.82144,-58.20833 -1.59076,20.51842 -4.49798,42.13388 17.38688,43.08929 19.12235,-2.08224 27.56466,-29.08457 34.77381,-58.964289 9.51155,-1.088888 20.22431,23.047889 31.75,64.255949 2.7209,-20.1757 -0.81653,-42.43752 12.85119,-58.964283 4.53638,29.122923 17.13601,36.775083 30.23811,43.089283 16.92063,-13.44817 28.64133,-31.44627 29.48213,-58.964282 12.95705,12.283709 24.23111,25.577212 27.2143,43.845242 8.40773,-33.14466 19.96448,-56.970052 34.01785,-61.232148 2.5165,31.503745 12.09858,50.895058 28.72618,58.208328 20.30486,-17.91866 44.93321,-39.446666 32.50596,-48.380947 22.63526,11.008242 5.70252,49.253577 13.60713,64.255947 3.55029,-22.10709 24.30813,-50.799865 35.52978,-49.892852 4.73539,42.162382 0.9998,38.431762 7.55952,51.404762 16.09718,-3.41591 28.77306,-27.61114 30.99405,-62.744047 6.44039,9.031972 10.51943,14.533483 11.33928,38.553567 13.25324,-1.03482 17.08779,-16.19768 22.67858,-28.726186 13.12331,67.791516 5.7346,99.117226 1.51191,136.071426 l -440.72025,2.26786 c -5.60465,-39.04955 -2.05607,-41.48622 -2.26785,-58.96429 z"
             id="path2978"
             inkscape:connector-curvature="0"
             sodipodi:nodetypes="ccccccccccccccccccccc" />
          <path
             style="fill:#fcff00;fill-opacity:0.31200005;stroke:none;stroke-width:0.26458332px;stroke-linecap:butt;stroke-linejoin:miter;stroke-opacity:1"
             d="m 260.80267,182.09522 c 12.71103,-3.22349 26.68999,34.3469 22.78094,-27.97023 17.30419,27.05983 30.28893,29.44234 31.87496,-12.09524 7.60901,1.80476 14.57072,12.90277 24.15733,32.50595 1.10289,-17.64185 20.2512,-43.3226 27.39498,-46.86904 -1.2198,24.2572 -1.50755,46.26127 11.35131,54.42856 16.42566,-2.16411 27.83663,-28.58602 20.08392,-46.86903 13.78688,3.88751 19.74851,29.21565 23.5143,49.13691 3.03266,-19.87498 18.61086,-49.81507 39.32153,-55.94049 1.65812,28.61473 10.63997,46.25582 27.6329,57.45239 0.52487,-8.95091 19.95657,-15.46244 11.74583,-52.91667 44.39403,23.59795 27.90132,37.26589 43.53048,53.67262 3.90926,-19.09564 3.1902,-50.57969 22.668,-52.16072 9.57187,43.15772 19.14375,37.78934 28.71562,49.89287 6.67438,-6.51391 12.50908,-19.66271 11.81363,-44.6012 19.1082,11.82849 27.6731,36.89398 31.00607,44.6012 3.42295,-5.74178 5.69711,-10.63602 7.24524,-14.79935 5.96632,-16.04506 1.14915,-21.23414 9.74711,-22.24232 0.76218,31.77106 11.26332,33.55045 21.15609,39.30952 9.04333,-2.59512 6.87629,-37.43835 10.23397,-51.40476 26.61038,21.76206 15.77295,65.96861 17.01493,89.20236 l -441.43206,3.02382 z"
             id="path3000"
             inkscape:connector-curvature="0"
             sodipodi:nodetypes="ccccccccccccccccscccccc" />
        </g>
        <path
           sodipodi:nodetypes="cccc"
           inkscape:connector-curvature="0"
           id="path6176"
           d="m 316.88143,-289.9907 c 20.47016,20.56393 24.28611,32.80076 19.87817,40.92564 13.02558,-26.11446 46.07783,-52.22892 70.15824,-78.34338 -30.73444,17.88987 -64.91511,61.62644 -90.03641,37.41774 z"
           style="fill:#ff0000;fill-opacity:0.56862745;stroke:none;stroke-width:0.26458332px;stroke-linecap:butt;stroke-linejoin:miter;stroke-opacity:1" />
      </g>
      <g
         id="g6541"
         inkscape:export-xdpi="96"
         inkscape:export-ydpi="96">
        <path
           style="fill:#ff0000;fill-opacity:0.656;stroke:none;stroke-width:0.26458332px;stroke-linecap:butt;stroke-linejoin:miter;stroke-opacity:1"
           d="m 814.22705,27.50137 c -22.29245,-132.34146 36.11614,-148.83851 28.5847,-197.29242 34.0646,21.11353 19.16512,65.16359 42.41523,53.85141 15.9598,-14.73232 10.95427,-49.09653 59.86175,-52.20915 -21.55058,44.27662 7.67347,75.80235 25.76197,92.04739 26.61345,-31.76856 31.488,-55.40946 5.49277,-107.50905 18.55699,18.35485 36.68353,44.78902 57.52313,71.88624 4.8761,-9.08623 12.4817,-69.25214 32.3533,-63.22815 18.9755,37.39682 55.5717,81.02797 81.1326,63.36965 5.9051,-20.48033 79.8849,-43.11855 23.2446,-86.40199 101.5727,9.47096 -0.07,100.85982 56.2011,110.65206 28.8753,-20.86805 14.3945,-63.57634 21.1183,-73.65883 60.2328,48.43518 7.1841,114.29454 7.0308,186.22498 z"
           id="path6148"
           inkscape:connector-curvature="0"
           sodipodi:nodetypes="cccccccccccccc" />
        <path
           style="fill:#ff5300;fill-opacity:0.46799999;stroke:none;stroke-width:0.26458332px;stroke-linecap:butt;stroke-linejoin:miter;stroke-opacity:1"
           d="m 811.9592,-31.46292 c 14.89019,-28.73371 37.72515,-23.97575 56.0224,-48.8539 -1.59076,20.51842 -19.69894,32.77945 2.18592,33.73486 19.12235,-2.08224 7.68649,-36.10039 14.89564,-65.98011 3.24905,9.03911 17.21046,50.61868 51.62817,52.5629 17.87493,-46.78865 51.69545,2.6404 101.80397,-66.65415 12.9571,12.28371 -6.1708,43.11677 -3.1876,61.3848 8.4078,-33.14466 42.1813,-44.1077 56.2346,-48.3698 -10.0489,26.47759 -7.9244,23.47539 10.0174,31.31434 20.3048,-17.91866 55.4569,-25.41503 43.0297,-34.34931 22.6352,11.00825 -7.1599,66.79315 0.7448,81.79552 3.5502,-22.10709 33.6626,-47.29195 44.8842,-46.38494 4.7354,42.16238 0.9998,13.87637 7.5595,26.84937 16.0971,-3.41591 35.7889,3.96007 38.0099,-31.17283 20.3305,5.95758 38.6879,-11.04184 29.3405,-35.77548 13.1234,67.79151 -5.9584,109.64096 -10.181,146.59516 l -440.72025,2.26786 c -5.60465,-39.04955 -2.05607,-41.48622 -2.26785,-58.96429 z"
           id="path6150"
           inkscape:connector-curvature="0"
           sodipodi:nodetypes="cccccccccccccccccc" />
        <path
           style="fill:#fcff00;fill-opacity:0.31200005;stroke:none;stroke-width:0.26458332px;stroke-linecap:butt;stroke-linejoin:miter;stroke-opacity:1"
           d="m 803.35982,-51.76561 c 3.76569,20.03439 66.89459,64.2849 69.5531,-15.10789 21.33225,73.16048 1.27975,-4.93965 25.63039,73.0294 1.10289,-17.64185 -1.96558,-105.29572 11.02472,-114.68868 -1.2198,24.2572 18.37062,68.47805 31.22948,76.64534 16.42566,-2.16411 23.15941,-9.87715 15.4067,-28.16016 13.78688,3.88751 12.73269,42.07799 16.49848,61.99925 3.03266,-19.87498 -1.26732,-54.49228 19.44335,-60.6177 1.65812,28.61473 9.47066,43.91721 26.46356,55.11378 0.5249,-8.95091 -3.4295,-33.002 -11.6403,-70.45623 44.3941,23.59795 59.4726,51.29754 75.1018,67.70427 3.9092,-19.09564 23.0683,-90.33603 42.5461,-91.91706 9.5719,43.15772 -3.073,63.51402 6.4989,75.61755 6.6743,-6.51391 69.2035,145.27933 18.8294,-56.29424 19.1082,11.82849 35.8583,64.95728 39.1912,72.6645 7.0412,-14.21781 13.1136,-57.67963 24.0082,-59.25845 0.7621,31.77106 7.7554,32.38115 17.6482,38.14022 9.0433,-2.59512 -7.1554,-49.1314 -3.7978,-63.09781 26.6104,21.76206 27.4661,91.69331 28.708,114.92706 l -441.43197,3.02382 z"
           id="path6152"
           inkscape:connector-curvature="0"
           sodipodi:nodetypes="ccccccccccccccccccccc" />
        <path
           sodipodi:nodetypes="cccccc"
           inkscape:connector-curvature="0"
           id="path6186"
           d="m 1074.5905,-208.13941 c 75.8253,63.93761 62.0882,54.3119 49.1108,71.32756 6.1288,2.99593 20.7782,40.12161 53.788,-29.23261 -14.8281,-34.81692 -41.5307,-29.76762 -59.6345,-59.63451 9.5077,44.56675 32.3244,52.20874 32.7405,67.81965 -35.0712,-35.90075 -61.9901,-50.47615 -76.0048,-50.28009 z"
           style="fill:#ff0000;fill-opacity:0.56862745;stroke:none;stroke-width:0.26458332px;stroke-linecap:butt;stroke-linejoin:miter;stroke-opacity:1" />
      </g>
    </g>
  </g>
</svg>
