<?xml version="1.0" encoding="UTF-8" standalone="no"?>
<!-- Created with Inkscape (http://www.inkscape.org/) -->

<svg
   xmlns:dc="http://purl.org/dc/elements/1.1/"
   xmlns:cc="http://creativecommons.org/ns#"
   xmlns:rdf="http://www.w3.org/1999/02/22-rdf-syntax-ns#"
   xmlns:svg="http://www.w3.org/2000/svg"
   xmlns="http://www.w3.org/2000/svg"
   xmlns:sodipodi="http://sodipodi.sourceforge.net/DTD/sodipodi-0.dtd"
   xmlns:inkscape="http://www.inkscape.org/namespaces/inkscape"
   width="256"
   height="256"
   viewBox="0 0 67.733332 67.733335"
   version="1.1"
   id="svg8"
   sodipodi:docname="il-profil.svg"
   inkscape:export-filename="C:\Git\MGM\iletait\Assets\Graphics\il-profil.png"
   inkscape:export-xdpi="96"
   inkscape:export-ydpi="96"
   inkscape:version="0.92.1 r15371">
  <defs
     id="defs2">
    <inkscape:path-effect
       bendpath-nodetypes="cc"
       vertical="false"
       scale_y_rel="false"
       prop_scale="1.9584069"
       bendpath="m 87.266261,11.379569 c 7.904855,7.261284 -3.049206,22.987366 -9.896983,13.58055"
       is_visible="true"
       id="path-effect4653"
       effect="bend_path" />
    <inkscape:path-effect
       effect="bend_path"
       id="path-effect4645"
       is_visible="true"
       bendpath="M 74.795069,28.744397 C 83.727178,18.711473 89.196258,22.572744 96.106251,28.228713"
       prop_scale="3.8786225"
       scale_y_rel="false"
       vertical="false"
       bendpath-nodetypes="cc" />
  </defs>
  <sodipodi:namedview
     id="base"
     pagecolor="#ffffff"
     bordercolor="#666666"
     borderopacity="1.0"
     inkscape:pageopacity="0.0"
     inkscape:pageshadow="2"
     inkscape:zoom="1.8008561"
     inkscape:cx="139.33131"
     inkscape:cy="128.29723"
     inkscape:document-units="px"
     inkscape:current-layer="layer2"
     showgrid="false"
     units="px"
     inkscape:snap-global="false"
     inkscape:window-width="1366"
     inkscape:window-height="705"
     inkscape:window-x="-8"
     inkscape:window-y="-8"
     inkscape:window-maximized="1" />
  <metadata
     id="metadata5">
    <rdf:RDF>
      <cc:Work
         rdf:about="">
        <dc:format>image/svg+xml</dc:format>
        <dc:type
           rdf:resource="http://purl.org/dc/dcmitype/StillImage" />
        <dc:title></dc:title>
      </cc:Work>
    </rdf:RDF>
  </metadata>
  <g
     inkscape:label="Layer 1"
     inkscape:groupmode="layer"
     id="layer1"
     transform="translate(0,-229.26665)" />
  <g
     inkscape:groupmode="layer"
     id="layer2"
     inkscape:label="Illus">
    <g
       transform="matrix(-0.21756232,-1.015234,0.89491263,-0.19118731,30.406917,128.65828)"
       id="g4612"
       style="stroke:none;stroke-width:1.02590227"
       inkscape:transform-center-x="-2.4332158"
       inkscape:transform-center-y="-17.032511">
      <path
         inkscape:connector-curvature="0"
         transform="scale(0.26458333)"
         id="path4608"
         d="m 343.29297,105.47852 h -61 c -3.3648,0 -6.07422,2.70941 -6.07422,6.07421 0,3.36481 2.70942,6.07422 6.07422,6.07422 h 61 z"
         style="fill:#ffccaa;fill-opacity:1;stroke:none;stroke-width:1.93895519;stroke-miterlimit:4;stroke-dasharray:none" />
      <path
         inkscape:connector-curvature="0"
         transform="scale(0.26458333)"
         id="path4610"
         d="m 343.29297,105.47852 v 12.14843 h 13.46875 c 3.3648,0 6.07226,-2.70941 6.07226,-6.07422 0,-3.3648 -2.70746,-6.07421 -6.07226,-6.07421 z"
         style="fill:#006680;fill-opacity:1;stroke:none;stroke-width:1.93895519;stroke-miterlimit:4;stroke-dasharray:none" />
    </g>
    <path
       style="fill:#006680;fill-opacity:1;stroke:none;stroke-width:0.44037828;stroke-miterlimit:4;stroke-dasharray:none"
       d="m 32.84785,25.370229 c -3.127523,0 -5.645412,2.856809 -5.645412,6.405313 v 8.573509 h 11.290825 v -8.573509 c 0,-3.548504 -2.517889,-6.405313 -5.645413,-6.405313 z"
       id="rect4500"
       inkscape:connector-curvature="0" />
    <rect
       ry="0.68934071"
       y="22.536467"
       x="32.840382"
       height="5.6242714"
       width="1.2616402"
       id="rect4638"
       style="fill:#ffb380;fill-opacity:1;stroke:none;stroke-width:0.44037828;stroke-miterlimit:4;stroke-dasharray:none"
       rx="0.68934071" />
    <g
       style="stroke:none;stroke-width:1.02590227"
       id="g4524"
       transform="matrix(0.91510639,0,0,1.0382846,-2.9163592,-20.36544)">
      <circle
         r="1.7718023"
         cy="15.462067"
         cx="42.95998"
         id="circle4518"
         style="fill:#ffccaa;fill-opacity:1;stroke:none;stroke-width:0.51301533;stroke-miterlimit:4;stroke-dasharray:none" />
      <circle
         style="fill:#ffb380;fill-opacity:1;stroke:none;stroke-width:0.51301533;stroke-miterlimit:4;stroke-dasharray:none"
         id="circle4520"
         cx="42.95998"
         cy="15.462067"
         r="1.0731127" />
    </g>
    <rect
       style="fill:none;fill-opacity:1;stroke:#000000;stroke-width:0.44037825;stroke-miterlimit:4;stroke-dasharray:none"
       id="rect4486"
       width="12.338126"
       height="17.197794"
       x="71.977821"
       y="2.5400286"
       rx="6.1690631"
       ry="6.1690631" />
    <circle
       style="fill:none;fill-opacity:1;stroke:#000000;stroke-width:0.5000625;stroke-miterlimit:4;stroke-dasharray:none"
       id="path4488"
       cx="97.318024"
       cy="8.6149101"
       r="5.684464" />
    <rect
       style="fill:none;fill-opacity:1;stroke:#000000;stroke-width:0.5000625;stroke-miterlimit:4;stroke-dasharray:none"
       id="rect4490"
       width="10.232035"
       height="10.232035"
       x="105.73103"
       y="3.6125813" />
    <rect
       ry="6.1690631"
       rx="6.1690631"
       y="5.6840086"
       x="28.241404"
       height="17.856205"
       width="11.290698"
       id="rect4498"
       style="fill:#ffccaa;fill-opacity:1;stroke:none;stroke-width:0.44037825;stroke-miterlimit:4;stroke-dasharray:none" />
    <path
       style="fill:#00222b;fill-opacity:1;stroke:none;stroke-width:0.50006253;stroke-miterlimit:4;stroke-dasharray:none"
       d="m 33.887011,3.9692667 a 6.3527646,7.2078799 0 0 0 -6.353101,7.2078283 6.3527646,7.2078799 0 0 0 2.785362,5.962427 V 12.78785 c 0,-3.4176613 2.679969,-6.1686159 6.008933,-6.1686159 1.084773,0 2.099371,0.293474 2.976047,0.8056356 a 6.3527646,7.2078799 0 0 0 -5.417241,-3.455603 z"
       id="circle4516"
       inkscape:connector-curvature="0" />
    <ellipse
       cy="5.3734121"
       cx="38.639835"
       id="circle4510"
       style="fill:#00222b;fill-opacity:1;stroke:none;stroke-width:0.50006253;stroke-miterlimit:4;stroke-dasharray:none"
       rx="2.9001384"
       ry="3.2905123" />
    <g
       style="stroke:none;stroke-width:1.02590227"
       transform="matrix(0.91510639,0,0,1.0382846,-10.074671,-1.2499118)"
       id="g4530">
      <circle
         style="fill:#ffccaa;fill-opacity:1;stroke:none;stroke-width:0.51301533;stroke-miterlimit:4;stroke-dasharray:none"
         id="circle4526"
         cx="42.95998"
         cy="15.462067"
         r="1.7718023" />
      <circle
         r="1.0731127"
         cy="15.462067"
         cx="42.95998"
         id="circle4528"
         style="fill:#ffb380;fill-opacity:1;stroke:none;stroke-width:0.51301533;stroke-miterlimit:4;stroke-dasharray:none" />
    </g>
    <path
       style="fill:#00112b;fill-opacity:1;stroke:none;stroke-width:0.44037828;stroke-miterlimit:4;stroke-dasharray:none"
       d="M 38.493263,40.349051 H 27.202438 v 3.483808 c 0,3.548504 2.517889,6.404778 5.645412,6.404778 3.127524,0 5.645413,-2.856274 5.645413,-6.404778 z"
       id="path4643"
       inkscape:connector-curvature="0" />
    <rect
       style="fill:#ffb380;fill-opacity:1;stroke:none;stroke-width:0.44037828;stroke-miterlimit:4;stroke-dasharray:none"
       id="rect4504"
       width="1.2616402"
       height="5.6242714"
       x="35.080845"
       y="11.799976"
       ry="0.68934071"
       rx="0.68934071" />
    <ellipse
       cy="12.772886"
       cx="33.349792"
       id="circle4506"
       style="fill:#00222b;fill-opacity:1;stroke:none;stroke-width:0.50006253;stroke-miterlimit:4;stroke-dasharray:none"
       rx="0.72626239"
       ry="0.8240211" />
    <ellipse
       style="fill:#00222b;fill-opacity:1;stroke:none;stroke-width:0.50006253;stroke-miterlimit:4;stroke-dasharray:none"
       id="circle4508"
       cx="37.429047"
       cy="12.772886"
       rx="0.72626239"
       ry="0.8240211" />
    <ellipse
       style="fill:#00222b;fill-opacity:1;stroke:none;stroke-width:0.50006253;stroke-miterlimit:4;stroke-dasharray:none"
       id="circle4512"
       cx="35.546852"
       cy="4.8145518"
       rx="2.1328878"
       ry="2.419986" />
    <ellipse
       cy="5.5184994"
       cx="33.013336"
       id="circle4514"
       style="fill:#00222b;fill-opacity:1;stroke:none;stroke-width:0.50006253;stroke-miterlimit:4;stroke-dasharray:none"
       rx="1.6213876"
       ry="1.839635" />
    <g
       style="stroke:none;stroke-width:1.02590227"
       id="g4577"
       transform="matrix(-0.91510639,0,0,1.0382846,58.105287,-3.1360522)">
      <rect
         y="44.397102"
         x="28.42305"
         height="21.3799"
         width="2.7947581"
         id="rect4540"
         style="fill:#00112b;fill-opacity:1;stroke:none;stroke-width:0.51301527;stroke-miterlimit:4;stroke-dasharray:none" />
      <path
         inkscape:connector-curvature="0"
         id="circle4542"
         d="m 29.14569,64.275369 a 3.0659022,2.9612251 0 0 0 -3.065871,2.961197 3.0659022,2.9612251 0 0 0 0.0028,0.0778 h 6.125054 a 3.0659022,2.9612251 0 0 0 0.0039,-0.0778 3.0659022,2.9612251 0 0 0 -3.065872,-2.961197 z"
         style="fill:#2b1100;fill-opacity:1;stroke:none;stroke-width:0.51301533;stroke-miterlimit:4;stroke-dasharray:none" />
    </g>
    <g
       style="stroke:none;stroke-width:1.02590227"
       id="g4581"
       transform="matrix(0.91510639,0,0,1.0382846,1.1126375,-3.1360522)">
      <rect
         transform="scale(-1,1)"
         style="fill:#00112b;fill-opacity:1;stroke:none;stroke-width:0.51301527;stroke-miterlimit:4;stroke-dasharray:none"
         id="rect4551"
         width="2.7947581"
         height="21.3799"
         x="-37.833405"
         y="44.397102" />
      <path
         style="fill:#2b1100;fill-opacity:1;stroke:none;stroke-width:0.51301533;stroke-miterlimit:4;stroke-dasharray:none"
         d="m 37.110763,64.275369 a 3.0659022,2.9612251 0 0 1 3.065871,2.961197 3.0659022,2.9612251 0 0 1 -0.0028,0.0778 H 34.04878 a 3.0659022,2.9612251 0 0 1 -0.0039,-0.0778 3.0659022,2.9612251 0 0 1 3.065872,-2.961197 z"
         id="path4553"
         inkscape:connector-curvature="0" />
    </g>
    <g
       style="stroke:none;stroke-width:1.02590227"
       id="g4651"
       transform="matrix(0.16411637,-1.0252313,0.9035117,0.14521647,-13.064018,119.98007)">
      <path
         style="fill:#ffccaa;fill-opacity:1;stroke:none;stroke-width:1.93895519;stroke-miterlimit:4;stroke-dasharray:none"
         d="m 343.29297,105.47852 h -61 c -3.3648,0 -6.07422,2.70941 -6.07422,6.07421 0,3.36481 2.70942,6.07422 6.07422,6.07422 h 61 z"
         id="path4647"
         transform="scale(0.26458333)"
         inkscape:connector-curvature="0" />
      <path
         style="fill:#006680;fill-opacity:1;stroke:none;stroke-width:1.93895519;stroke-miterlimit:4;stroke-dasharray:none"
         d="m 343.29297,105.47852 v 12.14843 h 13.46875 c 3.3648,0 6.07226,-2.70941 6.07226,-6.07422 0,-3.3648 -2.70746,-6.07421 -6.07226,-6.07421 z"
         id="path4649"
         transform="scale(0.26458333)"
         inkscape:connector-curvature="0" />
    </g>
    <g
       id="g4600">
      <path
         transform="scale(0.26458333)"
         id="path4596"
         d="M 343.29297 105.47852 L 282.29297 105.47852 C 278.92817 105.47852 276.21875 108.18793 276.21875 111.55273 C 276.21875 114.91754 278.92817 117.62695 282.29297 117.62695 L 343.29297 117.62695 L 343.29297 105.47852 z "
         style="fill:none;fill-opacity:1;stroke:#000000;stroke-width:1.88999987;stroke-miterlimit:4;stroke-dasharray:none" />
      <path
         transform="scale(0.26458333)"
         id="rect4591"
         d="M 343.29297 105.47852 L 343.29297 117.62695 L 356.76172 117.62695 C 360.12652 117.62695 362.83398 114.91754 362.83398 111.55273 C 362.83398 108.18793 360.12652 105.47852 356.76172 105.47852 L 343.29297 105.47852 z "
         style="fill:none;fill-opacity:1;stroke:#000000;stroke-width:1.88999987;stroke-miterlimit:4;stroke-dasharray:none" />
    </g>
    <g
       id="g4636"
       transform="matrix(0.74738178,0,0,0.84798336,11.172613,1.9029509)"
       style="stroke:none;stroke-width:1.25613141">
      <path
         style="fill:#1a1a1a;fill-opacity:1;stroke:none;stroke-width:0.62814432;stroke-miterlimit:4;stroke-dasharray:none"
         d="M 33.128221,23.418797 A 3.0659022,2.9612251 0 0 1 30.06235,20.4576 a 3.0659022,2.9612251 0 0 1 0.0028,-0.0778 h 6.125054 a 3.0659022,2.9612251 0 0 1 0.0039,0.0778 3.0659022,2.9612251 0 0 1 -3.065872,2.961197 z"
         id="path4629"
         inkscape:connector-curvature="0" />
      <path
         inkscape:connector-curvature="0"
         id="circle4542-6"
         d="m 33.128962,21.534549 a 2.5619127,2.6168929 0 0 0 -2.026905,1.018543 2.8720756,2.9612251 0 0 0 2.026905,0.865579 2.8720756,2.9612251 0 0 0 2.02545,-0.864032 2.5619127,2.6168929 0 0 0 -2.02545,-1.02009 z"
         style="fill:#ff5555;fill-opacity:1;stroke:none;stroke-width:0.62814432;stroke-miterlimit:4;stroke-dasharray:none" />
    </g>
  </g>
</svg>
