<?xml version="1.0" encoding="UTF-8" standalone="no"?>
<!-- Created with Inkscape (http://www.inkscape.org/) -->

<svg
   xmlns:dc="http://purl.org/dc/elements/1.1/"
   xmlns:cc="http://creativecommons.org/ns#"
   xmlns:rdf="http://www.w3.org/1999/02/22-rdf-syntax-ns#"
   xmlns:svg="http://www.w3.org/2000/svg"
   xmlns="http://www.w3.org/2000/svg"
   xmlns:xlink="http://www.w3.org/1999/xlink"
   xmlns:sodipodi="http://sodipodi.sourceforge.net/DTD/sodipodi-0.dtd"
   xmlns:inkscape="http://www.inkscape.org/namespaces/inkscape"
   width="210mm"
   height="297mm"
   viewBox="0 0 210 297"
   version="1.1"
   id="svg8"
   sodipodi:docname="PlanetV2.svg"
   inkscape:version="0.92.1 r15371"
   inkscape:export-filename="C:\Git\MGM\iletait\Assets\Graphics\Planet.png"
   inkscape:export-xdpi="96"
   inkscape:export-ydpi="96">
  <defs
     id="defs2">
    <linearGradient
       inkscape:collect="always"
       id="linearGradient5652">
      <stop
         style="stop-color:#3498db;stop-opacity:1"
         offset="0"
         id="stop5648" />
      <stop
         style="stop-color:#2980b9;stop-opacity:1"
         offset="1"
         id="stop5650" />
    </linearGradient>
    <linearGradient
       inkscape:collect="always"
       id="linearGradient4589">
      <stop
         style="stop-color:#ecf0f1;stop-opacity:1"
         offset="0"
         id="stop4585" />
      <stop
         style="stop-color:#bdc3c7;stop-opacity:1"
         offset="1"
         id="stop4587" />
    </linearGradient>
    <linearGradient
       inkscape:collect="always"
       id="linearGradient4581">
      <stop
         style="stop-color:#f1c40f;stop-opacity:1"
         offset="0"
         id="stop4577" />
      <stop
         style="stop-color:#f39c12;stop-opacity:1"
         offset="1"
         id="stop4579" />
    </linearGradient>
    <linearGradient
       inkscape:collect="always"
       id="linearGradient4559">
      <stop
         style="stop-color:#2ecc71;stop-opacity:1"
         offset="0"
         id="stop4555" />
      <stop
         style="stop-color:#27ae60;stop-opacity:1"
         offset="1"
         id="stop4557" />
    </linearGradient>
    <linearGradient
       inkscape:collect="always"
       id="linearGradient4543">
      <stop
         style="stop-color:#34495e;stop-opacity:1"
         offset="0"
         id="stop4539" />
      <stop
         style="stop-color:#2c3e50;stop-opacity:1"
         offset="1"
         id="stop4541" />
    </linearGradient>
    <radialGradient
       inkscape:collect="always"
       xlink:href="#linearGradient4543"
       id="radialGradient4545"
       cx="860.75336"
       cy="98.718018"
       fx="860.75336"
       fy="98.718018"
       r="230.20681"
       gradientTransform="matrix(-1.4676571,-1.0437341,1.1350748,-1.5960921,2020.3535,1368.0045)"
       gradientUnits="userSpaceOnUse" />
    <radialGradient
       inkscape:collect="always"
       xlink:href="#linearGradient5652"
       id="radialGradient4553"
       cx="504.71503"
       cy="650.53021"
       fx="504.71503"
       fy="650.53021"
       r="423.09772"
       gradientTransform="matrix(0.10872788,-1.3169837,1.3109125,0.10822626,-402.94976,1247.7041)"
       gradientUnits="userSpaceOnUse" />
    <radialGradient
       inkscape:collect="always"
       xlink:href="#linearGradient4559"
       id="radialGradient4561"
       cx="148.69197"
       cy="305.98038"
       fx="148.69197"
       fy="305.98038"
       r="205.73212"
       gradientTransform="matrix(-1.8214764,-1.7509042,2.5169402,-2.6183749,-350.6034,1367.2777)"
       gradientUnits="userSpaceOnUse" />
    <radialGradient
       inkscape:collect="always"
       xlink:href="#linearGradient5652"
       id="radialGradient4563"
       cx="103.98202"
       cy="856.71222"
       fx="103.98202"
       fy="856.71222"
       r="60.713539"
       gradientTransform="matrix(3.3774319,0.09087713,-0.07605998,2.8267549,-189.19615,-1571.6562)"
       gradientUnits="userSpaceOnUse" />
    <radialGradient
       inkscape:collect="always"
       xlink:href="#linearGradient4581"
       id="radialGradient4583"
       cx="127.06012"
       cy="854.21259"
       fx="127.06012"
       fy="854.21259"
       r="182.17577"
       gradientTransform="matrix(1.8175711,-1.3043297,1.2723336,1.7729823,-1212.4568,-434.11653)"
       gradientUnits="userSpaceOnUse" />
    <radialGradient
       inkscape:collect="always"
       xlink:href="#linearGradient4589"
       id="radialGradient4591"
       cx="957.93597"
       cy="907.94202"
       fx="957.93597"
       fy="907.94202"
       r="226.09637"
       gradientTransform="matrix(2.0682315,-2.7445173,1.299974,0.97963669,-2296.7048,2683.0706)"
       gradientUnits="userSpaceOnUse" />
  </defs>
  <sodipodi:namedview
     id="base"
     pagecolor="#ffffff"
     bordercolor="#666666"
     borderopacity="1.0"
     inkscape:pageopacity="0.0"
     inkscape:pageshadow="2"
     inkscape:zoom="0.47749719"
     inkscape:cx="119.4568"
     inkscape:cy="713.9756"
     inkscape:document-units="mm"
     inkscape:current-layer="layer1"
     showgrid="false"
     inkscape:window-width="1366"
     inkscape:window-height="705"
     inkscape:window-x="-8"
     inkscape:window-y="-8"
     inkscape:window-maximized="1"
     inkscape:snap-nodes="true" />
  <metadata
     id="metadata5">
    <rdf:RDF>
      <cc:Work
         rdf:about="">
        <dc:format>image/svg+xml</dc:format>
        <dc:type
           rdf:resource="http://purl.org/dc/dcmitype/StillImage" />
      </cc:Work>
    </rdf:RDF>
  </metadata>
  <g
     inkscape:label="Layer 1"
     inkscape:groupmode="layer"
     id="layer1">
    <circle
       style="fill:none;fill-opacity:1;stroke:#002b00;stroke-width:2.66985059;stroke-miterlimit:4;stroke-dasharray:none"
       id="path4485"
       cx="132.29167"
       cy="167.07785"
       rx="130.95674"
       ry="128.58722" />
    <path
       style="fill:none;stroke:#00112b;stroke-width:1.58749998;stroke-linecap:butt;stroke-linejoin:miter;stroke-opacity:1"
       d="m 142.95895,39.895523 c -5.21299,19.804414 6.70433,22.478513 13.85262,29.921641 9.27195,6.427957 18.64425,12.253878 29.36753,9.973879 22.68472,1.123127 21.7895,12.726227 18.28545,25.488807 -3.42973,5.49699 -6.3763,10.91346 -1.10821,14.96082 10.59212,21.46628 -7.1175,20.58909 -23.82649,20.50187 9.72029,22.28267 26.9596,28.27411 45.43657,31.58395 -10.90729,8.65633 -19.87943,17.88181 -6.09515,33.80037 -2.1375,21.21382 -16.93655,17.10453 -30.47575,15.51493 -13.76504,3.15553 -10.24616,16.68141 -9.97388,28.25933 l -1.10821,17.73135 c -10.14038,-1.24094 -20.62778,-6.99321 -29.36754,9.97386 l -3.87873,16.62314"
       id="path4511"
       inkscape:connector-curvature="0"
       sodipodi:nodetypes="ccccccccccccc"
       inkscape:export-xdpi="96"
       inkscape:export-ydpi="96" />
    <path
       style="fill:none;stroke:#00112b;stroke-width:1.58749998;stroke-linecap:butt;stroke-linejoin:miter;stroke-opacity:1"
       d="m 13.298507,220.53358 c -0.322364,-5.38655 4.400931,-7.40933 8.311567,-9.97388 7.496749,-0.93085 14.596421,-0.93518 17.731343,8.31157 5.282462,4.98694 7.246442,9.97388 2.216419,14.96082 -5.46728,10.63776 -12.498707,7.19821 -19.393657,4.98694"
       id="path4513"
       inkscape:connector-curvature="0"
       sodipodi:nodetypes="ccccc"
       inkscape:export-xdpi="96"
       inkscape:export-ydpi="96" />
    <path
       style="fill:none;stroke:#00112b;stroke-width:1.58749998;stroke-linecap:butt;stroke-linejoin:miter;stroke-opacity:1"
       d="m 85.886194,287.58023 c 10.26951,-5.48558 16.978186,-12.75159 3.87873,-29.92165 -10.370141,-3.91819 -8.258691,-10.95678 -7.203357,-17.73134 6.105599,-7.15457 15.282747,-13.54126 4.432834,-24.93471 C 76.432262,208.55786 67.590668,200.61772 68.708954,183.96268 61.73894,165.31417 48.703999,168.90373 37.679103,165.12313 20.152565,171.41178 11.02388,165.94343 0.55410446,162.35261"
       id="path4515"
       inkscape:connector-curvature="0"
       sodipodi:nodetypes="ccccccc"
       inkscape:export-xdpi="96"
       inkscape:export-ydpi="96" />
    <path
       style="fill:none;stroke:#00112b;stroke-width:1.58749998;stroke-linecap:butt;stroke-linejoin:miter;stroke-opacity:1"
       d="m 6.0951493,131.87686 c 2.9910613,15.20391 15.6779487,18.94913 34.9085807,14.96082 6.712496,-5.29059 15.271321,-5.96535 24.934701,-3.87873 12.601526,2.30007 22.283132,-1.2397 26.042911,-16.62313 -9.499214,-7.20336 -6.969671,-14.40672 -4.986941,-21.61008 9.623306,-4.15919 19.202189,-8.353916 21.610079,-18.285443 0.48378,-13.342564 -3.99594,-16.758129 -7.75747,-21.610073 0.61587,-14.314074 7.5318,-19.178055 13.85262,-24.934701"
       id="path4517"
       inkscape:connector-curvature="0"
       sodipodi:nodetypes="cccccccc"
       inkscape:export-xdpi="96"
       inkscape:export-ydpi="96" />
    <path
       style="fill:url(#radialGradient4553);fill-opacity:1;stroke:#00112b;stroke-width:12.56551933;stroke-miterlimit:4;stroke-dasharray:none"
       d="m 455.97912,1109.64 c -42.40949,-5.1927 -70.41644,-10.596 -97.38277,-18.7879 -9.79063,-2.9743 -18.07167,-5.663 -18.40229,-5.9749 -0.33062,-0.312 5.40971,-6.5795 12.75629,-13.9278 16.16426,-16.1681 20.13572,-27.5118 16.22573,-46.3462 -4.8632,-23.4258 -21.68792,-50.96042 -35.41927,-57.96563 -10.05074,-5.12751 -18.31906,-14.68124 -20.22804,-23.37277 -0.7937,-3.61369 -0.79359,-12.63523 2.4e-4,-20.04788 1.37567,-12.84586 2.07398,-14.18436 14.89912,-28.55856 16.67296,-18.68671 22.67988,-30.462 22.68495,-44.46881 0.006,-19.2265 -10.06102,-33.57605 -36.6634,-52.25523 -20.2668,-14.23056 -32.069,-27.57908 -41.15308,-46.54491 -6.31432,-13.18313 -7.42128,-17.96475 -8.72684,-37.69655 -1.33454,-20.16999 -2.26824,-24.06104 -8.68922,-36.21094 -8.86558,-16.77562 -23.48162,-31.47891 -38.2259,-38.45407 -6.13931,-2.90437 -25.56457,-8.20105 -43.16725,-11.77043 l -32.00487,-6.48976 -18.12184,4.74531 c -13.6165,3.56557 -23.58876,4.7057 -40.111493,4.58597 -19.765446,-0.14325 -24.531615,-0.99935 -47.120696,-8.46422 l -25.131038,-8.3049 0.652782,-15.5682 c 0.645527,-15.39517 7.122492,-60.10622 10.42393,-71.95728 l 1.706842,-6.12701 5.708205,9.74033 c 11.660672,19.89741 35.776918,32.39342 66.325494,34.36701 22.182514,1.43309 53.090204,-2.45644 62.827594,-7.90646 16.29727,-9.12158 25.16411,-12.45021 38.01154,-14.26963 12.72616,-1.80225 20.55132,-1.33764 61.46548,3.6494 45.41887,5.53612 76.95807,-14.81921 89.73414,-57.91424 l 3.28467,-11.07952 -8.44095,-7.62589 c -16.31731,-14.74172 -20.82655,-30.20012 -15.62692,-53.57148 l 3.42721,-15.40463 23.8323,-11.85842 c 26.99244,-13.43084 43.35871,-26.9179 52.05639,-42.89839 7.27577,-13.36798 8.80389,-25.04838 5.80538,-44.37426 -2.88599,-18.60052 -7.95374,-30.6634 -19.06451,-45.37949 -9.26651,-12.2734 -10.09991,-17.8652 -5.33199,-35.7752 4.97215,-18.67712 11.95555,-30.27626 28.35677,-47.09939 l 15.79053,-16.19674 17.74621,-2.12798 c 9.76042,-1.17038 32.98592,-2.12797 51.6122,-2.12797 h 33.86602 l -1.82373,7.85345 c -2.91033,12.5325 -2.23246,38.91259 1.2538,48.79374 4.62788,13.11677 13.79238,23.94957 36.23387,42.82984 32.71653,27.52475 63.95826,46.19093 87.62952,52.35652 7.4062,1.92907 21.35477,3.05641 37.17182,3.00427 53.94415,-0.17782 78.72067,15.42639 78.72067,49.57818 0,18.8962 -3.49773,32.95792 -13.0824,52.59437 -7.33918,15.03603 -8.27496,18.56551 -7.38316,27.84676 0.74434,7.74643 2.52808,12.20116 6.57824,16.4286 7.16264,7.47619 14.34471,27.75514 14.5649,41.12466 0.39962,24.26634 -14.49355,31.29315 -72.29567,34.11009 l -30.61962,1.49222 8.11886,16.22809 c 26.81867,53.60551 68.60568,84.92835 135.94383,101.90123 l 22.50751,5.6731 -15.99708,16.63329 c -20.27658,21.08293 -26.01297,32.55251 -26.12514,52.23557 -0.0691,12.14169 1.02514,16.99799 6.37097,28.27242 3.54999,7.48696 9.34257,17.1924 12.87241,21.56765 5.3921,6.68353 6.22695,9.194 5.22326,15.7069 -2.17652,14.12343 -8.94154,29.00467 -16.72308,36.7862 -13.50962,13.50961 -31.3802,16.30039 -73.31586,11.44939 -17.24255,-1.99457 -22.98646,-1.93959 -29.72552,0.2845 -11.72959,3.87112 -22.03703,13.02896 -27.77212,24.67468 -4.70733,9.55878 -4.90687,11.92763 -5.07215,60.21231 -0.0947,27.64414 -0.90761,58.12837 -1.80663,67.74273 l -1.63461,17.48066 -6.57036,-1.1434 c -32.0724,-5.58124 -44.36887,-6.17586 -56.16975,-2.7162 -15.62292,4.5802 -27.98566,14.1957 -38.67345,30.0795 -7.42023,11.0277 -9.65436,17.1457 -15.27759,41.8367 -3.62252,15.906 -7.35251,30.3337 -8.28889,32.0614 -1.41079,2.6032 -8.30162,3.1811 -40.22011,3.3734 -21.18469,0.1276 -41.34487,-0.1141 -44.80039,-0.5372 z"
       id="path4525"
       inkscape:connector-curvature="0"
       transform="scale(0.26458333)"
       inkscape:export-xdpi="96"
       inkscape:export-ydpi="96" />
    <path
       style="fill:url(#radialGradient4563);fill-opacity:1.0;stroke:#00112b;stroke-width:12.56551933;stroke-miterlimit:4;stroke-dasharray:none"
       d="M 104.74856,905.35004 C 98.118028,903.587 95.363216,900.77145 86.00642,886.19465 71.768705,864.01394 55.021042,832.43392 54.969836,827.6709 c -0.06724,-6.25456 6.042012,-13.52212 18.088611,-21.5182 11.318286,-7.51265 11.701989,-7.60122 29.820243,-6.88377 16.29908,0.64541 19.21855,1.38626 26.07115,6.61586 4.2442,3.23898 10.04111,10.476 12.88201,16.08225 2.84091,5.60626 6.21776,10.84366 7.50412,11.63868 5.0426,3.1165 14.49484,20.91805 14.49484,27.29837 0,4.22634 -2.79543,10.81492 -7.60092,17.9147 -18.33413,27.08743 -28.90378,32.53457 -51.48133,26.53125 z"
       id="path4527"
       inkscape:connector-curvature="0"
       transform="scale(0.26458333)"
       inkscape:export-xdpi="96"
       inkscape:export-ydpi="96" />
    <path
       style="fill:url(#radialGradient4583);fill-opacity:1;stroke:#00112b;stroke-width:12.56551933;stroke-miterlimit:4;stroke-dasharray:none"
       d="m 312.82626,1075.0524 c -20.94628,-8.0458 -61.99815,-30.0226 -86.16786,-46.1293 -41.89522,-27.919 -83.08854,-65.49523 -111.45114,-101.6648 l -9.87986,-12.59934 13.37742,0.12586 c 11.18282,0.10514 14.79195,-0.81022 21.99989,-5.58022 7.8472,-5.19303 18.01006,-18.1231 27.95241,-35.56347 5.08057,-8.9121 3.60756,-22.1896 -3.58582,-32.32222 -11.2973,-15.91342 -14.97582,-21.38571 -20.08877,-29.88475 -8.04645,-13.37528 -20.05012,-19.36241 -41.02734,-20.46343 -14.922023,-0.78321 -18.702351,-0.24483 -27.214368,3.87577 -5.436836,2.63193 -13.982132,8.71091 -18.989548,13.50886 -5.007414,4.79795 -9.104391,8.58272 -9.104391,8.41059 0,-0.17212 -3.773157,-10.3257 -8.384792,-22.56351 C 23.948519,750.91143 13.918895,700.5177 11.638249,650.38228 l -1.331512,-29.27061 21.407793,7.1953 c 35.68915,11.99536 64.826304,13.2174 97.61228,4.09397 12.34956,-3.43655 13.20441,-3.39444 40.37472,1.98874 38.88263,7.70372 49.26518,11.99757 63.24346,26.15524 16.01394,16.21943 23.03295,31.4177 23.03295,49.87322 0,38.70962 16.62595,66.61691 57.83257,97.07415 15.51432,11.46719 20.12228,16.18303 24.60748,25.18363 9.65528,19.37563 6.39302,30.87417 -16.02198,56.47309 -12.6922,14.49506 -13.9853,16.87162 -16.24722,29.86049 -4.57458,26.26922 0.79435,40.52819 19.84986,52.71786 13.08106,8.36786 18.88373,15.35883 28.67918,34.55234 5.74634,11.2595 6.95701,15.9907 7.00358,27.3696 0.0473,11.5731 -0.86289,15.1474 -5.73415,22.5156 -6.15463,9.3094 -23.5212,23.3481 -28.76471,23.2526 -1.72776,-0.031 -8.18809,-1.9957 -14.35629,-4.3651 z"
       id="path4529"
       inkscape:connector-curvature="0"
       transform="scale(0.26458333)"
       inkscape:export-xdpi="96"
       inkscape:export-ydpi="96" />
    <path
       style="fill:url(#radialGradient4561);fill-opacity:1;stroke:#00112b;stroke-width:12.56551933;stroke-miterlimit:4;stroke-dasharray:none"
       d="M 77.966427,553.04008 C 55.378341,546.58668 42.74868,536.45073 33.826332,517.61535 28.154485,505.6419 28.101191,505.17394 31.202712,494.57856 36.325371,477.07861 51.68657,438.83472 61.165252,419.98257 123.84791,295.31293 240.52154,201.86681 376.3975,167.50709 c 14.97391,-3.78654 30.35431,-7.44024 34.17867,-8.11934 l 6.95338,-1.23472 -10.74207,12.01901 c -14.77961,16.53647 -24.61744,37.22315 -27.62674,58.09258 l -2.41587,16.75403 10.76009,14.74697 c 12.77536,17.50896 16.85792,28.10953 18.55424,48.17694 2.8177,33.33321 -12.46998,52.58561 -59.90931,75.44632 l -20.7072,9.97866 -3.31858,11.82732 c -4.52344,16.12143 -4.24846,38.63591 0.60149,49.2491 2.10544,4.60736 7.66874,12.20091 12.3629,16.87459 l 8.53482,8.49756 -5.05459,12.44497 c -10.50326,25.86018 -23.62062,38.16595 -46.98848,44.08125 -12.14192,3.07357 -15.76219,3.13457 -33.50805,0.56457 -10.94248,-1.58472 -31.79015,-2.88132 -46.32816,-2.88132 h -26.43275 l -17.62279,8.93756 c -10.11952,5.13222 -22.94037,9.80833 -30.11209,10.98271 -17.18676,2.81434 -48.240454,2.34248 -59.609983,-0.90577 z"
       id="path4531"
       inkscape:connector-curvature="0"
       transform="scale(0.26458333)"
       inkscape:export-xdpi="96"
       inkscape:export-ydpi="96" />
    <path
       style="fill:none;stroke:#000000;stroke-width:1.58749998;stroke-linecap:butt;stroke-linejoin:miter;stroke-opacity:1"
       d="m 224.96642,172.32649 c 11.69276,-5.38636 23.95639,-7.3475 37.125,-3.87873"
       id="path4533"
       inkscape:connector-curvature="0"
       sodipodi:nodetypes="cc"
       inkscape:export-xdpi="96"
       inkscape:export-ydpi="96" />
    <path
       style="fill:url(#radialGradient4591);fill-opacity:1;stroke:#00112b;stroke-width:12.56551933;stroke-miterlimit:4;stroke-dasharray:none"
       d="m 549.89842,1105.4589 c 0.65432,-2.1399 3.68245,-14.7285 6.72918,-27.9746 6.61525,-28.7609 12.76836,-41.0227 27.20808,-54.2198 16.63221,-15.2009 30.99266,-17.8783 63.02076,-11.7496 9.02807,1.7276 18.88552,3.1412 21.90543,3.1414 l 5.49075,4e-4 1.6771,-29.84313 c 0.92241,-16.41371 1.44594,-46.45152 1.16339,-66.7507 -0.58759,-42.21494 1.00127,-50.88417 11.44435,-62.44342 11.69269,-12.94242 15.55557,-13.7592 50.12036,-10.59786 59.66321,5.45689 80.68128,-6.70418 90.16054,-52.16693 l 3.149,-15.10271 -7.02157,-8.20312 c -12.78671,-14.9384 -19.14143,-30.50181 -19.20717,-47.04047 -0.075,-18.84121 5.80441,-29.5066 28.35472,-51.43693 17.68618,-17.19995 28.35416,-22.64617 61.63988,-31.4685 19.89028,-5.27189 61.9935,-6.40085 81.15231,-2.17604 14.01851,3.09129 13.54714,1.27106 9.90882,38.26245 -14.15177,143.88357 -92.25881,272.71853 -214.62206,354.01196 -60.28524,40.0512 -139.67717,69.3263 -212.25592,78.2676 -10.27192,1.2655 -11.1083,1.0559 -10.01795,-2.51 z"
       id="path4535"
       inkscape:connector-curvature="0"
       transform="scale(0.26458333)"
       inkscape:export-xdpi="96"
       inkscape:export-ydpi="96" />
    <path
       style="fill:url(#radialGradient4545);fill-opacity:1;stroke:#0b0b28;stroke-width:12.56551933;stroke-miterlimit:4;stroke-dasharray:none"
       d="m 820.27665,640.91775 c -24.36243,-6.22967 -48.88379,-15.78788 -65.93281,-25.70005 -19.02951,-11.06362 -45.22058,-37.61567 -58.39757,-59.20246 -10.64559,-17.43979 -10.76932,-17.8288 -6.09549,-19.16309 2.62387,-0.74907 13.17521,-1.45588 23.44741,-1.57069 36.26705,-0.40536 55.90557,-6.73195 65.75516,-21.18318 9.40058,-13.79246 3.62997,-47.72704 -11.09108,-65.22204 -7.64191,-9.08187 -7.0452,-19.79517 2.10225,-37.74447 12.65323,-24.82838 16.88452,-56.14097 10.22674,-75.68046 -4.38294,-12.8632 -17.99985,-24.84172 -35.00816,-30.79597 -10.28143,-3.59931 -20.33443,-4.8632 -48.56739,-6.10599 -40.08173,-1.76437 -45.89674,-3.36701 -74.99389,-20.66867 -20.6466,-12.27682 -62.70822,-46.44378 -70.61906,-57.36438 -3.30259,-4.55909 -7.1013,-11.61197 -8.44158,-15.67305 -2.56482,-7.77148 -1.98523,-47.41629 0.73295,-50.13446 0.83243,-0.83244 13.05239,0.10316 27.15547,2.07909 141.98611,19.89318 268.1771,101.38015 345.81869,223.3101 27.71585,43.52553 52.61884,105.89593 62.93241,157.6164 5.3424,26.79096 9.56333,63.3366 9.56333,82.80109 v 11.41645 l -6.80633,-1.44967 c -36.44511,-7.76239 -86.19975,-3.04653 -119.79613,11.35456 -12.28902,5.2677 -18.30539,5.13599 -41.98492,-0.91906 z"
       id="path4537"
       inkscape:connector-curvature="0"
       transform="scale(0.26458333)"
       inkscape:export-xdpi="96"
       inkscape:export-ydpi="96" />
  </g>
</svg>
