<?xml version="1.0" encoding="UTF-8" standalone="no"?>
<!-- Created with Inkscape (http://www.inkscape.org/) -->

<svg
   xmlns:dc="http://purl.org/dc/elements/1.1/"
   xmlns:cc="http://creativecommons.org/ns#"
   xmlns:rdf="http://www.w3.org/1999/02/22-rdf-syntax-ns#"
   xmlns:svg="http://www.w3.org/2000/svg"
   xmlns="http://www.w3.org/2000/svg"
   xmlns:sodipodi="http://sodipodi.sourceforge.net/DTD/sodipodi-0.dtd"
   xmlns:inkscape="http://www.inkscape.org/namespaces/inkscape"
   width="1280"
   height="384"
   viewBox="0 0 338.66666 101.6"
   version="1.1"
   id="svg8"
   inkscape:version="0.92.1 r15371"
   sodipodi:docname="RoadV0.2.svg">
  <defs
     id="defs2">
    <inkscape:path-effect
       effect="perspective-envelope"
       up_left_point="100,245.68"
       up_right_point="442.75,245.68"
       down_left_point="-12.680239,302.3795"
       down_right_point="342.75065,302.3795"
       id="path-effect260"
       is_visible="true"
       deform_type="perspective"
       horizontal_mirror="false"
       vertical_mirror="false"
       overflow_perspective="false" />
    <inkscape:path-effect
       effect="perspective-envelope"
       up_left_point="73.57361,246.21089"
       up_right_point="356.84673,246.7543"
       down_left_point="-16.558372,303.21258"
       down_right_point="276.13806,304.04567"
       id="path-effect258"
       is_visible="true"
       deform_type="perspective"
       horizontal_mirror="false"
       vertical_mirror="false"
       overflow_perspective="false" />
    <inkscape:path-effect
       effect="perspective-envelope"
       up_left_point="-12.680239,189.02586"
       up_right_point="342.75065,189.02586"
       down_left_point="-12.680239,302.3795"
       down_right_point="342.75065,302.3795"
       id="path-effect256"
       is_visible="true"
       deform_type="perspective"
       horizontal_mirror="false"
       vertical_mirror="false"
       overflow_perspective="false" />
  </defs>
  <sodipodi:namedview
     id="base"
     pagecolor="#ffffff"
     bordercolor="#666666"
     borderopacity="1.0"
     inkscape:pageopacity="0.0"
     inkscape:pageshadow="2"
     inkscape:zoom="0.17214286"
     inkscape:cx="515.20349"
     inkscape:cy="328.59839"
     inkscape:document-units="px"
     inkscape:current-layer="layer1"
     showgrid="false"
     units="px"
     inkscape:snap-global="true"
     inkscape:window-width="1366"
     inkscape:window-height="705"
     inkscape:window-x="-8"
     inkscape:window-y="-8"
     inkscape:window-maximized="1" />
  <metadata
     id="metadata5">
    <rdf:RDF>
      <cc:Work
         rdf:about="">
        <dc:format>image/svg+xml</dc:format>
        <dc:type
           rdf:resource="http://purl.org/dc/dcmitype/StillImage" />
        <dc:title></dc:title>
      </cc:Work>
    </rdf:RDF>
  </metadata>
  <g
     inkscape:label="Layer 1"
     inkscape:groupmode="layer"
     id="layer1"
     transform="translate(0,-195.40002)">
    <g
       id="g193"
       inkscape:export-xdpi="96"
       inkscape:export-ydpi="96"
       transform="matrix(1.7834596,0,0,1.8449522,-188.42249,-259.57683)"
       style="stroke-width:0.55128455"
       inkscape:path-effect="#path-effect260">
      <path
         style="fill:#4e3a59;fill-opacity:1;stroke:#000000;stroke-width:0.14586072;stroke-miterlimit:4;stroke-dasharray:none"
         d="m 106.71795,248.65126 c 0,0 327.4504,0 327.4504,0 0,0 -90.65882,51.34009 -90.65882,51.34009 0,0 -338.3988865,0 -338.3988865,0 0,0 101.6073065,-51.34009 101.6073065,-51.34009 z"
         id="rect10"
         inkscape:connector-curvature="0"
         inkscape:original-d="M 0.38424966,195.17386 H 339.29242 V 297.76852 H 0.38424966 Z" />
      <path
         style="fill:#c4ac96;fill-opacity:1;stroke:#000000;stroke-width:0.14586072;stroke-miterlimit:4;stroke-dasharray:none"
         d="m 65.253576,272.6507 c 0,0 23.377825,0 23.377825,0 0,0 -4.521331,2.30652 -4.521331,2.30652 0,0 -23.412401,0 -23.412401,0 0,0 4.555907,-2.30652 4.555907,-2.30652 z"
         id="rect12"
         inkscape:connector-curvature="0"
         inkscape:original-d="M 6.5322442,243.97357 H 30.355723 v 4.611 H 6.5322442 Z" />
      <path
         style="fill:#c4ac96;fill-opacity:1;stroke:#000000;stroke-width:0.14586072;stroke-miterlimit:4;stroke-dasharray:none"
         d="m 97.597085,272.6507 c 0,0 23.377825,0 23.377825,0 0,0 -4.47349,2.30652 -4.47349,2.30652 0,0 -23.412405,0 -23.412405,0 0,0 4.50807,-2.30652 4.50807,-2.30652 z"
         id="rect14"
         inkscape:connector-curvature="0"
         inkscape:original-d="M 39.492321,243.97357 H 63.3158 v 4.611 H 39.492321 Z" />
      <path
         style="fill:#c4ac96;fill-opacity:1;stroke:#000000;stroke-width:0.14586072;stroke-miterlimit:4;stroke-dasharray:none"
         d="m 129.9406,272.6507 c 0,0 23.37782,0 23.37782,0 0,0 -4.42566,2.30652 -4.42566,2.30652 0,0 -23.4124,0 -23.4124,0 0,0 4.46024,-2.30652 4.46024,-2.30652 z"
         id="rect16"
         inkscape:connector-curvature="0"
         inkscape:original-d="m 72.4524,243.97357 h 23.823479 v 4.611 H 72.4524 Z" />
      <path
         style="fill:#c4ac96;fill-opacity:1;stroke:#000000;stroke-width:0.14586072;stroke-miterlimit:4;stroke-dasharray:none"
         d="m 162.28411,272.6507 c 0,0 23.37782,0 23.37782,0 0,0 -4.37782,2.30652 -4.37782,2.30652 0,0 -23.4124,0 -23.4124,0 0,0 4.4124,-2.30652 4.4124,-2.30652 z"
         id="rect18"
         inkscape:connector-curvature="0"
         inkscape:original-d="m 105.41248,243.97357 h 23.82348 v 4.611 h -23.82348 z" />
      <path
         style="fill:#c4ac96;fill-opacity:1;stroke:#000000;stroke-width:0.14586072;stroke-miterlimit:4;stroke-dasharray:none"
         d="m 194.62762,272.6507 c 0,0 23.37783,0 23.37783,0 0,0 -4.32999,2.30652 -4.32999,2.30652 0,0 -23.4124,0 -23.4124,0 0,0 4.36456,-2.30652 4.36456,-2.30652 z"
         id="rect20"
         inkscape:connector-curvature="0"
         inkscape:original-d="m 138.37256,243.97357 h 23.82348 v 4.611 h -23.82348 z" />
      <path
         style="fill:#c4ac96;fill-opacity:1;stroke:#000000;stroke-width:0.14586072;stroke-miterlimit:4;stroke-dasharray:none"
         d="m 226.97112,272.6507 c 0,0 23.37783,0 23.37783,0 0,0 -4.28215,2.30652 -4.28215,2.30652 0,0 -23.4124,0 -23.4124,0 0,0 4.31672,-2.30652 4.31672,-2.30652 z"
         id="rect22"
         inkscape:connector-curvature="0"
         inkscape:original-d="m 171.33263,243.97357 h 23.82348 v 4.611 h -23.82348 z" />
      <path
         style="fill:#c4ac96;fill-opacity:1;stroke:#000000;stroke-width:0.14586072;stroke-miterlimit:4;stroke-dasharray:none"
         d="m 259.31464,272.6507 c 0,0 23.37782,0 23.37782,0 0,0 -4.23431,2.30652 -4.23431,2.30652 0,0 -23.4124,0 -23.4124,0 0,0 4.26889,-2.30652 4.26889,-2.30652 z"
         id="rect24"
         inkscape:connector-curvature="0"
         inkscape:original-d="m 204.29271,243.97357 h 23.82348 v 4.611 h -23.82348 z" />
      <path
         style="fill:#c4ac96;fill-opacity:1;stroke:#000000;stroke-width:0.14586072;stroke-miterlimit:4;stroke-dasharray:none"
         d="m 291.65814,272.6507 c 0,0 23.37782,0 23.37782,0 0,0 -4.18647,2.30652 -4.18647,2.30652 0,0 -23.4124,0 -23.4124,0 0,0 4.22105,-2.30652 4.22105,-2.30652 z"
         id="rect26"
         inkscape:connector-curvature="0"
         inkscape:original-d="m 237.25278,243.97357 h 23.82348 v 4.611 h -23.82348 z" />
      <path
         style="fill:#c4ac96;fill-opacity:1;stroke:#000000;stroke-width:0.14586072;stroke-miterlimit:4;stroke-dasharray:none"
         d="m 324.00165,272.6507 c 0,0 23.37783,0 23.37783,0 0,0 -4.13864,2.30652 -4.13864,2.30652 0,0 -23.4124,0 -23.4124,0 0,0 4.17321,-2.30652 4.17321,-2.30652 z"
         id="rect28"
         inkscape:connector-curvature="0"
         inkscape:original-d="m 270.21286,243.97357 h 23.82348 v 4.611 h -23.82348 z" />
      <path
         style="fill:#c4ac96;fill-opacity:1;stroke:#000000;stroke-width:0.14586072;stroke-miterlimit:4;stroke-dasharray:none"
         d="m 356.34519,272.6507 c 0,0 23.37783,0 23.37783,0 0,0 -4.0908,2.30652 -4.0908,2.30652 0,0 -23.41241,0 -23.41241,0 0,0 4.12538,-2.30652 4.12538,-2.30652 z"
         id="rect30"
         inkscape:connector-curvature="0"
         inkscape:original-d="m 303.17297,243.97357 h 23.82348 v 4.611 h -23.82348 z" />
      <path
         style="fill:#c8b7b7;fill-opacity:1;stroke:#000000;stroke-width:0.14586072;stroke-miterlimit:4;stroke-dasharray:none"
         d="m 12.539202,296.81827 c 0,0 14.167487,0 14.167487,0 0,0 -10.952453,5.56123 -10.952453,5.56123 0,0 -14.2172374,0 -14.2172374,0 0,0 11.0022034,-5.56123 11.0022034,-5.56123 z"
         id="rect32"
         inkscape:connector-curvature="0"
         inkscape:original-d="M 1.5369986,291.62051 H 15.754236 V 302.3795 H 1.5369986 Z" />
      <path
         style="fill:#c8b7b7;fill-opacity:1;stroke:#000000;stroke-width:0.14586072;stroke-miterlimit:4;stroke-dasharray:none"
         d="m -1.6282845,296.81827 c 0,0 14.1674865,0 14.1674865,0 0,0 -11.0022033,5.56123 -11.0022033,5.56123 0,0 -14.2172377,0 -14.2172377,0 0,0 11.0519545,-5.56123 11.0519545,-5.56123 z"
         id="rect34"
         inkscape:connector-curvature="0"
         inkscape:original-d="M -12.680239,291.62051 H 1.5369987 V 302.3795 H -12.680239 Z" />
      <path
         style="fill:#c8b7b7;fill-opacity:1;stroke:#000000;stroke-width:0.14586072;stroke-miterlimit:4;stroke-dasharray:none"
         d="m 26.706689,296.81827 c 0,0 14.167487,0 14.167487,0 0,0 -10.902702,5.56123 -10.902702,5.56123 0,0 -14.217238,0 -14.217238,0 0,0 10.952453,-5.56123 10.952453,-5.56123 z"
         id="rect36"
         inkscape:connector-curvature="0"
         inkscape:original-d="M 15.754236,291.62051 H 29.971474 V 302.3795 H 15.754236 Z" />
      <path
         style="fill:#c8b7b7;fill-opacity:1;stroke:#000000;stroke-width:0.14586072;stroke-miterlimit:4;stroke-dasharray:none"
         d="m 40.874176,296.81827 c 0,0 14.167486,0 14.167486,0 0,0 -10.852951,5.56123 -10.852951,5.56123 0,0 -14.217237,0 -14.217237,0 0,0 10.902702,-5.56123 10.902702,-5.56123 z"
         id="rect38"
         inkscape:connector-curvature="0"
         inkscape:original-d="M 29.971474,291.62051 H 44.188711 V 302.3795 H 29.971474 Z" />
      <path
         style="fill:#c8b7b7;fill-opacity:1;stroke:#000000;stroke-width:0.14586072;stroke-miterlimit:4;stroke-dasharray:none"
         d="m 55.041664,296.81827 c 0,0 14.167487,0 14.167487,0 0,0 -10.8032,5.56123 -10.8032,5.56123 0,0 -14.217238,0 -14.217238,0 0,0 10.852951,-5.56123 10.852951,-5.56123 z"
         id="rect40"
         inkscape:connector-curvature="0"
         inkscape:original-d="M 44.188713,291.62051 H 58.405951 V 302.3795 H 44.188713 Z" />
      <path
         style="fill:#c8b7b7;fill-opacity:1;stroke:#000000;stroke-width:0.14586072;stroke-miterlimit:4;stroke-dasharray:none"
         d="m 69.209152,296.81827 c 0,0 14.167487,0 14.167487,0 0,0 -10.753449,5.56123 -10.753449,5.56123 0,0 -14.217238,0 -14.217238,0 0,0 10.8032,-5.56123 10.8032,-5.56123 z"
         id="rect42"
         inkscape:connector-curvature="0"
         inkscape:original-d="M 58.405952,291.62051 H 72.62319 V 302.3795 H 58.405952 Z" />
      <path
         style="fill:#c8b7b7;fill-opacity:1;stroke:#000000;stroke-width:0.14586072;stroke-miterlimit:4;stroke-dasharray:none"
         d="m 83.376641,296.81827 c 0,0 14.167486,0 14.167486,0 0,0 -10.703698,5.56123 -10.703698,5.56123 0,0 -14.217237,0 -14.217237,0 0,0 10.753449,-5.56123 10.753449,-5.56123 z"
         id="rect44"
         inkscape:connector-curvature="0"
         inkscape:original-d="M 72.623192,291.62051 H 86.840429 V 302.3795 H 72.623192 Z" />
      <path
         style="fill:#c8b7b7;fill-opacity:1;stroke:#000000;stroke-width:0.14586072;stroke-miterlimit:4;stroke-dasharray:none"
         d="m 97.544129,296.81827 c 0,0 14.167491,0 14.167491,0 0,0 -10.65395,5.56123 -10.65395,5.56123 0,0 -14.217239,0 -14.217239,0 0,0 10.703698,-5.56123 10.703698,-5.56123 z"
         id="rect46"
         inkscape:connector-curvature="0"
         inkscape:original-d="M 86.840431,291.62051 H 101.05767 V 302.3795 H 86.840431 Z" />
      <path
         style="fill:#c8b7b7;fill-opacity:1;stroke:#000000;stroke-width:0.14586072;stroke-miterlimit:4;stroke-dasharray:none"
         d="m 111.71162,296.81827 c 0,0 14.16749,0 14.16749,0 0,0 -10.6042,5.56123 -10.6042,5.56123 0,0 -14.21724,0 -14.21724,0 0,0 10.65395,-5.56123 10.65395,-5.56123 z"
         id="rect48"
         inkscape:connector-curvature="0"
         inkscape:original-d="m 101.05767,291.62051 h 14.21724 v 10.75899 h -14.21724 z" />
      <path
         style="fill:#c8b7b7;fill-opacity:1;stroke:#000000;stroke-width:0.14586072;stroke-miterlimit:4;stroke-dasharray:none"
         d="m 125.87911,296.81827 c 0,0 14.16749,0 14.16749,0 0,0 -10.55445,5.56123 -10.55445,5.56123 0,0 -14.21724,0 -14.21724,0 0,0 10.6042,-5.56123 10.6042,-5.56123 z"
         id="rect50"
         inkscape:connector-curvature="0"
         inkscape:original-d="m 115.27491,291.62051 h 14.21724 v 10.75899 h -14.21724 z" />
      <path
         style="fill:#c8b7b7;fill-opacity:1;stroke:#000000;stroke-width:0.14586072;stroke-miterlimit:4;stroke-dasharray:none"
         d="m 140.04659,296.81827 c 0,0 14.16748,0 14.16748,0 0,0 -10.50469,5.56123 -10.50469,5.56123 0,0 -14.21724,0 -14.21724,0 0,0 10.55445,-5.56123 10.55445,-5.56123 z"
         id="rect52"
         inkscape:connector-curvature="0"
         inkscape:original-d="m 129.49214,291.62051 h 14.21724 v 10.75899 h -14.21724 z" />
      <path
         style="fill:#c8b7b7;fill-opacity:1;stroke:#000000;stroke-width:0.14586072;stroke-miterlimit:4;stroke-dasharray:none"
         d="m 154.21407,296.81827 c 0,0 14.16749,0 14.16749,0 0,0 -10.45494,5.56123 -10.45494,5.56123 0,0 -14.21724,0 -14.21724,0 0,0 10.50469,-5.56123 10.50469,-5.56123 z"
         id="rect54"
         inkscape:connector-curvature="0"
         inkscape:original-d="m 143.70938,291.62051 h 14.21724 v 10.75899 h -14.21724 z" />
      <path
         style="fill:#c8b7b7;fill-opacity:1;stroke:#000000;stroke-width:0.14586072;stroke-miterlimit:4;stroke-dasharray:none"
         d="m 168.38156,296.81827 c 0,0 14.16749,0 14.16749,0 0,0 -10.40519,5.56123 -10.40519,5.56123 0,0 -14.21724,0 -14.21724,0 0,0 10.45494,-5.56123 10.45494,-5.56123 z"
         id="rect56"
         inkscape:connector-curvature="0"
         inkscape:original-d="m 157.92662,291.62051 h 14.21724 v 10.75899 h -14.21724 z" />
      <path
         style="fill:#c8b7b7;fill-opacity:1;stroke:#000000;stroke-width:0.14586072;stroke-miterlimit:4;stroke-dasharray:none"
         d="m 182.54905,296.81827 c 0,0 14.16749,0 14.16749,0 0,0 -10.35544,5.56123 -10.35544,5.56123 0,0 -14.21724,0 -14.21724,0 0,0 10.40519,-5.56123 10.40519,-5.56123 z"
         id="rect58"
         inkscape:connector-curvature="0"
         inkscape:original-d="M 172.14386,291.62051 H 186.3611 V 302.3795 H 172.14386 Z" />
      <path
         style="fill:#c8b7b7;fill-opacity:1;stroke:#000000;stroke-width:0.14586072;stroke-miterlimit:4;stroke-dasharray:none"
         d="m 196.71654,296.81827 c 0,0 14.16749,0 14.16749,0 0,0 -10.30569,5.56123 -10.30569,5.56123 0,0 -14.21724,0 -14.21724,0 0,0 10.35544,-5.56123 10.35544,-5.56123 z"
         id="rect60"
         inkscape:connector-curvature="0"
         inkscape:original-d="m 186.3611,291.62051 h 14.21724 V 302.3795 H 186.3611 Z" />
      <path
         style="fill:#c8b7b7;fill-opacity:1;stroke:#000000;stroke-width:0.14586072;stroke-miterlimit:4;stroke-dasharray:none"
         d="m 210.88403,296.81827 c 0,0 14.16749,0 14.16749,0 0,0 -10.25594,5.56123 -10.25594,5.56123 0,0 -14.21724,0 -14.21724,0 0,0 10.30569,-5.56123 10.30569,-5.56123 z"
         id="rect62"
         inkscape:connector-curvature="0"
         inkscape:original-d="m 200.57834,291.62051 h 14.21724 v 10.75899 h -14.21724 z" />
      <path
         style="fill:#c8b7b7;fill-opacity:1;stroke:#000000;stroke-width:0.14586072;stroke-miterlimit:4;stroke-dasharray:none"
         d="m 225.05152,296.81827 c 0,0 14.16749,0 14.16749,0 0,0 -10.20619,5.56123 -10.20619,5.56123 0,0 -14.21724,0 -14.21724,0 0,0 10.25594,-5.56123 10.25594,-5.56123 z"
         id="rect64"
         inkscape:connector-curvature="0"
         inkscape:original-d="m 214.79558,291.62051 h 14.21724 v 10.75899 h -14.21724 z" />
      <path
         style="fill:#c8b7b7;fill-opacity:1;stroke:#000000;stroke-width:0.14586072;stroke-miterlimit:4;stroke-dasharray:none"
         d="m 239.21901,296.81827 c 0,0 14.16748,0 14.16748,0 0,0 -10.15644,5.56123 -10.15644,5.56123 0,0 -14.21723,0 -14.21723,0 0,0 10.20619,-5.56123 10.20619,-5.56123 z"
         id="rect66"
         inkscape:connector-curvature="0"
         inkscape:original-d="m 229.01282,291.62051 h 14.21723 v 10.75899 h -14.21723 z" />
      <path
         style="fill:#c8b7b7;fill-opacity:1;stroke:#000000;stroke-width:0.14586072;stroke-miterlimit:4;stroke-dasharray:none"
         d="m 253.3865,296.81827 c 0,0 14.16748,0 14.16748,0 0,0 -10.10669,5.56123 -10.10669,5.56123 0,0 -14.21723,0 -14.21723,0 0,0 10.15644,-5.56123 10.15644,-5.56123 z"
         id="rect68"
         inkscape:connector-curvature="0"
         inkscape:original-d="m 243.23006,291.62051 h 14.21723 v 10.75899 h -14.21723 z" />
      <path
         style="fill:#c8b7b7;fill-opacity:1;stroke:#000000;stroke-width:0.14586072;stroke-miterlimit:4;stroke-dasharray:none"
         d="m 267.55399,296.81827 c 0,0 14.16748,0 14.16748,0 0,0 -10.05694,5.56123 -10.05694,5.56123 0,0 -14.21723,0 -14.21723,0 0,0 10.10669,-5.56123 10.10669,-5.56123 z"
         id="rect70"
         inkscape:connector-curvature="0"
         inkscape:original-d="m 257.4473,291.62051 h 14.21723 V 302.3795 H 257.4473 Z" />
      <path
         style="fill:#c8b7b7;fill-opacity:1;stroke:#000000;stroke-width:0.14586072;stroke-miterlimit:4;stroke-dasharray:none"
         d="m 281.72146,296.81827 c 0,0 14.16749,0 14.16749,0 0,0 -10.00719,5.56123 -10.00719,5.56123 0,0 -14.21724,0 -14.21724,0 0,0 10.05694,-5.56123 10.05694,-5.56123 z"
         id="rect72"
         inkscape:connector-curvature="0"
         inkscape:original-d="m 271.66452,291.62051 h 14.21724 v 10.75899 h -14.21724 z" />
      <path
         style="fill:#c8b7b7;fill-opacity:1;stroke:#000000;stroke-width:0.14586072;stroke-miterlimit:4;stroke-dasharray:none"
         d="m 295.88893,296.81827 c 0,0 14.16748,0 14.16748,0 0,0 -9.95743,5.56123 -9.95743,5.56123 0,0 -14.21724,0 -14.21724,0 0,0 10.00719,-5.56123 10.00719,-5.56123 z"
         id="rect74"
         inkscape:connector-curvature="0"
         inkscape:original-d="m 285.88174,291.62051 h 14.21724 v 10.75899 h -14.21724 z" />
      <path
         style="fill:#c8b7b7;fill-opacity:1;stroke:#000000;stroke-width:0.14586072;stroke-miterlimit:4;stroke-dasharray:none"
         d="m 310.0564,296.81827 c 0,0 14.16749,0 14.16749,0 0,0 -9.90768,5.56123 -9.90768,5.56123 0,0 -14.21724,0 -14.21724,0 0,0 9.95743,-5.56123 9.95743,-5.56123 z"
         id="rect76"
         inkscape:connector-curvature="0"
         inkscape:original-d="m 300.09897,291.62051 h 14.21724 v 10.75899 h -14.21724 z" />
      <path
         style="fill:#c8b7b7;fill-opacity:1;stroke:#000000;stroke-width:0.14586072;stroke-miterlimit:4;stroke-dasharray:none"
         d="m 324.22387,296.81827 c 0,0 14.16749,0 14.16749,0 0,0 -9.85793,5.56123 -9.85793,5.56123 0,0 -14.21724,0 -14.21724,0 0,0 9.90768,-5.56123 9.90768,-5.56123 z"
         id="rect78"
         inkscape:connector-curvature="0"
         inkscape:original-d="m 314.31619,291.62051 h 14.21724 v 10.75899 h -14.21724 z" />
      <path
         style="fill:#c8b7b7;fill-opacity:1;stroke:#000000;stroke-width:0.14586072;stroke-miterlimit:4;stroke-dasharray:none"
         d="m 338.39135,296.81827 c 0,0 14.16748,0 14.16748,0 0,0 -9.80818,5.56123 -9.80818,5.56123 0,0 -14.21723,0 -14.21723,0 0,0 9.85793,-5.56123 9.85793,-5.56123 z"
         id="rect80"
         inkscape:connector-curvature="0"
         inkscape:original-d="m 328.53342,291.62051 h 14.21723 v 10.75899 h -14.21723 z" />
      <path
         style="fill:#c8b7b7;fill-opacity:1;stroke:#000000;stroke-width:0.14586072;stroke-miterlimit:4;stroke-dasharray:none"
         d="m 113.71,245.68 c 0,0 13.71,0 13.71,0 0,0 -10.25537,5.20728 -10.25537,5.20728 0,0 -13.75659,0 -13.75659,0 0,0 10.30196,-5.20728 10.30196,-5.20728 z"
         id="rect82"
         inkscape:connector-curvature="0"
         inkscape:original-d="M 1.5369986,189.02586 H 15.754236 v 10.75899 H 1.5369986 Z" />
      <path
         style="fill:#c8b7b7;fill-opacity:1;stroke:#000000;stroke-width:0.14586072;stroke-miterlimit:4;stroke-dasharray:none"
         d="m 100,245.68 c 0,0 13.71,0 13.71,0 0,0 -10.30196,5.20728 -10.30196,5.20728 0,0 -13.756584,0 -13.756584,0 0,0 10.348544,-5.20728 10.348544,-5.20728 z"
         id="rect84"
         inkscape:connector-curvature="0"
         inkscape:original-d="M -12.680239,189.02586 H 1.5369987 v 10.75899 H -12.680239 Z" />
      <path
         style="fill:#c8b7b7;fill-opacity:1;stroke:#000000;stroke-width:0.14586072;stroke-miterlimit:4;stroke-dasharray:none"
         d="m 127.42,245.68 c 0,0 13.71001,0 13.71001,0 0,0 -10.20879,5.20728 -10.20879,5.20728 0,0 -13.75659,0 -13.75659,0 0,0 10.25537,-5.20728 10.25537,-5.20728 z"
         id="rect86"
         inkscape:connector-curvature="0"
         inkscape:original-d="m 15.754236,189.02586 h 14.217238 v 10.75899 H 15.754236 Z" />
      <path
         style="fill:#c8b7b7;fill-opacity:1;stroke:#000000;stroke-width:0.14586072;stroke-miterlimit:4;stroke-dasharray:none"
         d="m 141.13001,245.68 c 0,0 13.71,0 13.71,0 0,0 -10.16221,5.20728 -10.16221,5.20728 0,0 -13.75658,0 -13.75658,0 0,0 10.20879,-5.20728 10.20879,-5.20728 z"
         id="rect88"
         inkscape:connector-curvature="0"
         inkscape:original-d="m 29.971474,189.02586 h 14.217237 v 10.75899 H 29.971474 Z" />
      <path
         style="fill:#c8b7b7;fill-opacity:1;stroke:#000000;stroke-width:0.14586072;stroke-miterlimit:4;stroke-dasharray:none"
         d="m 154.84001,245.68 c 0,0 13.71,0 13.71,0 0,0 -10.11562,5.20728 -10.11562,5.20728 0,0 -13.75659,0 -13.75659,0 0,0 10.16221,-5.20728 10.16221,-5.20728 z"
         id="rect90"
         inkscape:connector-curvature="0"
         inkscape:original-d="m 44.188713,189.02586 h 14.217238 v 10.75899 H 44.188713 Z" />
      <path
         style="fill:#c8b7b7;fill-opacity:1;stroke:#000000;stroke-width:0.14586072;stroke-miterlimit:4;stroke-dasharray:none"
         d="m 168.55001,245.68 c 0,0 13.71001,0 13.71001,0 0,0 -10.06904,5.20728 -10.06904,5.20728 0,0 -13.75659,0 -13.75659,0 0,0 10.11562,-5.20728 10.11562,-5.20728 z"
         id="rect92"
         inkscape:connector-curvature="0"
         inkscape:original-d="M 58.405952,189.02586 H 72.62319 v 10.75899 H 58.405952 Z" />
      <path
         style="fill:#c8b7b7;fill-opacity:1;stroke:#000000;stroke-width:0.14586072;stroke-miterlimit:4;stroke-dasharray:none"
         d="m 182.26002,245.68 c 0,0 13.71,0 13.71,0 0,0 -10.02245,5.20728 -10.02245,5.20728 0,0 -13.75659,0 -13.75659,0 0,0 10.06904,-5.20728 10.06904,-5.20728 z"
         id="rect94"
         inkscape:connector-curvature="0"
         inkscape:original-d="m 72.623192,189.02586 h 14.217237 v 10.75899 H 72.623192 Z" />
      <path
         style="fill:#c8b7b7;fill-opacity:1;stroke:#000000;stroke-width:0.14586072;stroke-miterlimit:4;stroke-dasharray:none"
         d="m 195.97002,245.68 c 0,0 13.71,0 13.71,0 0,0 -9.97586,5.20728 -9.97586,5.20728 0,0 -13.75659,0 -13.75659,0 0,0 10.02245,-5.20728 10.02245,-5.20728 z"
         id="rect96"
         inkscape:connector-curvature="0"
         inkscape:original-d="m 86.840431,189.02586 h 14.217239 v 10.75899 H 86.840431 Z" />
      <path
         style="fill:#c8b7b7;fill-opacity:1;stroke:#000000;stroke-width:0.14586072;stroke-miterlimit:4;stroke-dasharray:none"
         d="m 209.68002,245.68 c 0,0 13.71001,0 13.71001,0 0,0 -9.92929,5.20728 -9.92929,5.20728 0,0 -13.75658,0 -13.75658,0 0,0 9.97586,-5.20728 9.97586,-5.20728 z"
         id="rect98"
         inkscape:connector-curvature="0"
         inkscape:original-d="m 101.05767,189.02586 h 14.21724 v 10.75899 h -14.21724 z" />
      <path
         style="fill:#c8b7b7;fill-opacity:1;stroke:#000000;stroke-width:0.14586072;stroke-miterlimit:4;stroke-dasharray:none"
         d="m 223.39003,245.68 c 0,0 13.71,0 13.71,0 0,0 -9.8827,5.20728 -9.8827,5.20728 0,0 -13.75659,0 -13.75659,0 0,0 9.92929,-5.20728 9.92929,-5.20728 z"
         id="rect100"
         inkscape:connector-curvature="0"
         inkscape:original-d="m 115.27491,189.02586 h 14.21724 v 10.75899 h -14.21724 z" />
      <path
         style="fill:#c8b7b7;fill-opacity:1;stroke:#000000;stroke-width:0.14586072;stroke-miterlimit:4;stroke-dasharray:none"
         d="m 237.10002,245.68 c 0,0 13.71001,0 13.71001,0 0,0 -9.83612,5.20728 -9.83612,5.20728 0,0 -13.75659,0 -13.75659,0 0,0 9.8827,-5.20728 9.8827,-5.20728 z"
         id="rect102"
         inkscape:connector-curvature="0"
         inkscape:original-d="m 129.49214,189.02586 h 14.21724 v 10.75899 h -14.21724 z" />
      <path
         style="fill:#c8b7b7;fill-opacity:1;stroke:#000000;stroke-width:0.14586072;stroke-miterlimit:4;stroke-dasharray:none"
         d="m 250.81003,245.68 c 0,0 13.71,0 13.71,0 0,0 -9.78953,5.20728 -9.78953,5.20728 0,0 -13.75659,0 -13.75659,0 0,0 9.83612,-5.20728 9.83612,-5.20728 z"
         id="rect104"
         inkscape:connector-curvature="0"
         inkscape:original-d="m 143.70938,189.02586 h 14.21724 v 10.75899 h -14.21724 z" />
      <path
         style="fill:#c8b7b7;fill-opacity:1;stroke:#000000;stroke-width:0.14586072;stroke-miterlimit:4;stroke-dasharray:none"
         d="m 264.52003,245.68 c 0,0 13.71001,0 13.71001,0 0,0 -9.74295,5.20728 -9.74295,5.20728 0,0 -13.75659,0 -13.75659,0 0,0 9.78953,-5.20728 9.78953,-5.20728 z"
         id="rect106"
         inkscape:connector-curvature="0"
         inkscape:original-d="m 157.92662,189.02586 h 14.21724 v 10.75899 h -14.21724 z" />
      <path
         style="fill:#c8b7b7;fill-opacity:1;stroke:#000000;stroke-width:0.14586072;stroke-miterlimit:4;stroke-dasharray:none"
         d="m 278.23004,245.68 c 0,0 13.71,0 13.71,0 0,0 -9.69636,5.20728 -9.69636,5.20728 0,0 -13.75659,0 -13.75659,0 0,0 9.74295,-5.20728 9.74295,-5.20728 z"
         id="rect108"
         inkscape:connector-curvature="0"
         inkscape:original-d="m 172.14386,189.02586 h 14.21724 v 10.75899 h -14.21724 z" />
      <path
         style="fill:#c8b7b7;fill-opacity:1;stroke:#000000;stroke-width:0.14586072;stroke-miterlimit:4;stroke-dasharray:none"
         d="m 291.94004,245.68 c 0,0 13.71,0 13.71,0 0,0 -9.64977,5.20728 -9.64977,5.20728 0,0 -13.75659,0 -13.75659,0 0,0 9.69636,-5.20728 9.69636,-5.20728 z"
         id="rect110"
         inkscape:connector-curvature="0"
         inkscape:original-d="m 186.3611,189.02586 h 14.21724 v 10.75899 H 186.3611 Z" />
      <path
         style="fill:#c8b7b7;fill-opacity:1;stroke:#000000;stroke-width:0.14586072;stroke-miterlimit:4;stroke-dasharray:none"
         d="m 305.65004,245.68 c 0,0 13.71001,0 13.71001,0 0,0 -9.60319,5.20728 -9.60319,5.20728 0,0 -13.75659,0 -13.75659,0 0,0 9.64977,-5.20728 9.64977,-5.20728 z"
         id="rect112"
         inkscape:connector-curvature="0"
         inkscape:original-d="m 200.57834,189.02586 h 14.21724 v 10.75899 h -14.21724 z" />
      <path
         style="fill:#c8b7b7;fill-opacity:1;stroke:#000000;stroke-width:0.14586072;stroke-miterlimit:4;stroke-dasharray:none"
         d="m 319.36005,245.68 c 0,0 13.71,0 13.71,0 0,0 -9.55661,5.20728 -9.55661,5.20728 0,0 -13.75658,0 -13.75658,0 0,0 9.60319,-5.20728 9.60319,-5.20728 z"
         id="rect114"
         inkscape:connector-curvature="0"
         inkscape:original-d="m 214.79558,189.02586 h 14.21724 v 10.75899 h -14.21724 z" />
      <path
         style="fill:#c8b7b7;fill-opacity:1;stroke:#000000;stroke-width:0.14586072;stroke-miterlimit:4;stroke-dasharray:none"
         d="m 333.07005,245.68 c 0,0 13.71,0 13.71,0 0,0 -9.51003,5.20728 -9.51003,5.20728 0,0 -13.75658,0 -13.75658,0 0,0 9.55661,-5.20728 9.55661,-5.20728 z"
         id="rect116"
         inkscape:connector-curvature="0"
         inkscape:original-d="m 229.01282,189.02586 h 14.21723 v 10.75899 h -14.21723 z" />
      <path
         style="fill:#c8b7b7;fill-opacity:1;stroke:#000000;stroke-width:0.14586072;stroke-miterlimit:4;stroke-dasharray:none"
         d="m 346.78006,245.68 c 0,0 13.70999,0 13.70999,0 0,0 -9.46344,5.20728 -9.46344,5.20728 0,0 -13.75658,0 -13.75658,0 0,0 9.51003,-5.20728 9.51003,-5.20728 z"
         id="rect118"
         inkscape:connector-curvature="0"
         inkscape:original-d="m 243.23006,189.02586 h 14.21723 v 10.75899 h -14.21723 z" />
      <path
         style="fill:#c8b7b7;fill-opacity:1;stroke:#000000;stroke-width:0.14586072;stroke-miterlimit:4;stroke-dasharray:none"
         d="m 360.49006,245.68 c 0,0 13.71,0 13.71,0 0,0 -9.41686,5.20728 -9.41686,5.20728 0,0 -13.75658,0 -13.75658,0 0,0 9.46344,-5.20728 9.46344,-5.20728 z"
         id="rect120"
         inkscape:connector-curvature="0"
         inkscape:original-d="m 257.4473,189.02586 h 14.21723 v 10.75899 H 257.4473 Z" />
      <path
         style="fill:#c8b7b7;fill-opacity:1;stroke:#000000;stroke-width:0.14586072;stroke-miterlimit:4;stroke-dasharray:none"
         d="m 374.20005,245.68 c 0,0 13.71,0 13.71,0 0,0 -9.37027,5.20728 -9.37027,5.20728 0,0 -13.75659,0 -13.75659,0 0,0 9.41686,-5.20728 9.41686,-5.20728 z"
         id="rect122"
         inkscape:connector-curvature="0"
         inkscape:original-d="m 271.66452,189.02586 h 14.21724 v 10.75899 h -14.21724 z" />
      <path
         style="fill:#c8b7b7;fill-opacity:1;stroke:#000000;stroke-width:0.14586072;stroke-miterlimit:4;stroke-dasharray:none"
         d="m 387.91003,245.68 c 0,0 13.71001,0 13.71001,0 0,0 -9.32369,5.20728 -9.32369,5.20728 0,0 -13.75659,0 -13.75659,0 0,0 9.37027,-5.20728 9.37027,-5.20728 z"
         id="rect124"
         inkscape:connector-curvature="0"
         inkscape:original-d="m 285.88174,189.02586 h 14.21724 v 10.75899 h -14.21724 z" />
      <path
         style="fill:#c8b7b7;fill-opacity:1;stroke:#000000;stroke-width:0.14586072;stroke-miterlimit:4;stroke-dasharray:none"
         d="m 401.62003,245.68 c 0,0 13.71,0 13.71,0 0,0 -9.2771,5.20728 -9.2771,5.20728 0,0 -13.75659,0 -13.75659,0 0,0 9.32369,-5.20728 9.32369,-5.20728 z"
         id="rect126"
         inkscape:connector-curvature="0"
         inkscape:original-d="m 300.09897,189.02586 h 14.21724 v 10.75899 h -14.21724 z" />
      <path
         style="fill:#c8b7b7;fill-opacity:1;stroke:#000000;stroke-width:0.14586072;stroke-miterlimit:4;stroke-dasharray:none"
         d="m 415.33001,245.68 c 0,0 13.71001,0 13.71001,0 0,0 -9.23052,5.20728 -9.23052,5.20728 0,0 -13.75659,0 -13.75659,0 0,0 9.2771,-5.20728 9.2771,-5.20728 z"
         id="rect128"
         inkscape:connector-curvature="0"
         inkscape:original-d="m 314.31619,189.02586 h 14.21724 v 10.75899 h -14.21724 z" />
      <path
         style="fill:#c8b7b7;fill-opacity:1;stroke:#000000;stroke-width:0.14586072;stroke-miterlimit:4;stroke-dasharray:none"
         d="m 429.04001,245.68 c 0,0 13.70999,0 13.70999,0 0,0 -9.18393,5.20728 -9.18393,5.20728 0,0 -13.75658,0 -13.75658,0 0,0 9.23052,-5.20728 9.23052,-5.20728 z"
         id="rect130"
         inkscape:connector-curvature="0"
         inkscape:original-d="m 328.53342,189.02586 h 14.21723 v 10.75899 h -14.21723 z" />
    </g>
  </g>
</svg>
